<?xml version="1.0" encoding="UTF-8"?>
<svg version="1.1" xmlns="http://www.w3.org/2000/svg" width="960" height="960">
<path d="M0 0 C1.24801392 -0.00701431 2.49602783 -0.01402863 3.78186035 -0.02125549 C7.78430127 -0.03865106 11.78659193 -0.04568924 15.7890625 -0.046875 C16.47129128 -0.04731686 17.15352005 -0.04775871 17.85642242 -0.04821396 C38.52945035 -0.05523411 58.9101136 0.27728061 79.4140625 3.203125 C80.64898438 3.36941406 81.88390625 3.53570312 83.15625 3.70703125 C162.00516379 14.50277503 238.76385911 45.28109529 302.4140625 93.203125 C303.01250977 93.64994629 303.61095703 94.09676758 304.22753906 94.55712891 C311.47020535 99.97375794 318.43810351 105.67650579 325.30078125 111.5625 C328.09578207 113.9525653 330.96662003 116.23470416 333.8515625 118.515625 C339.11103194 122.77880728 343.83993684 127.48583531 348.55639648 132.33129883 C351.69356581 135.54534847 354.88712998 138.41046853 358.4140625 141.203125 C359.53217778 142.4007393 360.61750479 143.62999866 361.6640625 144.890625 C364.24678572 147.92057302 366.93443141 150.74056551 369.7890625 153.515625 C373.93901639 157.6092128 377.59390384 161.97599774 381.234375 166.5234375 C383.20704697 168.94862203 385.24549505 171.2690631 387.3515625 173.578125 C392.3802376 179.19083914 396.91323603 185.16661216 401.4140625 191.203125 C401.90535645 191.85925781 402.39665039 192.51539063 402.90283203 193.19140625 C416.88211423 211.94227167 429.12122508 231.73510738 440.4140625 252.203125 C440.8467041 252.98187988 441.2793457 253.76063477 441.72509766 254.56298828 C466.61376951 299.60737288 482.51372206 349.72828414 491.1640625 400.328125 C491.3506543 401.40835937 491.53724609 402.48859375 491.72949219 403.6015625 C492.35442956 407.46113979 492.89883331 411.32775944 493.4140625 415.203125 C493.54007843 416.1264563 493.66609436 417.0497876 493.79592896 418.00109863 C496.32327347 437.02692554 496.91823707 455.79488026 496.86010742 474.95410156 C496.85096121 478.10606576 496.85777068 481.25728573 496.88061523 484.40917969 C497.09189556 513.78877291 495.14691485 542.94762084 489.1015625 571.765625 C488.79690452 573.26558142 488.49246775 574.76558279 488.18823242 576.265625 C480.99026711 611.32216024 470.36179517 645.65366447 455.4140625 678.203125 C454.88055176 679.3689209 454.34704102 680.5347168 453.79736328 681.73583984 C445.94885726 698.79349382 437.22979192 715.18145191 427.4140625 731.203125 C426.89602051 732.05583984 426.37797852 732.90855469 425.84423828 733.78710938 C409.92397645 759.91004463 390.99633299 783.63016859 370.4140625 806.203125 C369.57488281 807.13511719 368.73570312 808.06710937 367.87109375 809.02734375 C359.20154583 818.62204408 350.28772214 828.10842818 340.4140625 836.48046875 C337.98017119 838.57684779 335.64271825 840.7670988 333.2890625 842.953125 C327.47979516 848.24886595 321.36893885 853.08435723 315.13867188 857.87255859 C313.52951081 859.1140546 311.93223352 860.37091154 310.3359375 861.62890625 C236.31280493 919.61369343 140.79621105 957.11606815 21.00463867 960.72460938 C17.12428194 960.70180112 13.2450229 960.7154283 9.36470318 960.73838425 C-41.82810837 960.99385969 -92.21031796 951.83584482 -140.5859375 935.203125 C-141.50987305 934.88907715 -142.43380859 934.5750293 -143.38574219 934.25146484 C-190.22129021 918.22178685 -234.2442118 894.17988167 -273.5859375 864.203125 C-274.16891602 863.75904297 -274.75189453 863.31496094 -275.35253906 862.85742188 C-291.26526251 850.67081825 -306.56298114 837.53465497 -320.5859375 823.203125 C-323.45758788 820.31622692 -326.35001197 817.45194055 -329.2578125 814.6015625 C-335.99294416 807.97336381 -342.55886368 801.39050261 -348.40234375 793.9453125 C-350.45554955 791.36686801 -352.58815196 788.89539788 -354.76513672 786.42260742 C-366.57312884 772.96134349 -376.95101246 758.28155082 -386.5859375 743.203125 C-387.07916504 742.43307129 -387.57239258 741.66301758 -388.08056641 740.86962891 C-433.83431587 669.07944864 -463.47200421 583.24370509 -463.7890625 497.4609375 C-463.79612213 496.18675964 -463.80318176 494.91258179 -463.81045532 493.59979248 C-463.82998446 489.50923081 -463.83514734 485.41872892 -463.8359375 481.328125 C-463.83623207 480.63103676 -463.83652664 479.93394852 -463.83683014 479.21573639 C-463.83822915 458.73205788 -463.66704834 438.50413115 -460.5859375 418.203125 C-460.37420939 416.76111207 -460.16280037 415.31905226 -459.95166016 413.87695312 C-455.88437072 386.41044235 -449.76773661 359.74800696 -441.5859375 333.203125 C-441.19051758 331.90592529 -441.19051758 331.90592529 -440.78710938 330.58251953 C-422.08617321 269.82791176 -388.89274779 214.19956023 -347.5859375 166.203125 C-346.97234375 165.48769531 -346.35875 164.77226562 -345.7265625 164.03515625 C-344.0296968 162.07568038 -342.31237836 160.13659089 -340.5859375 158.203125 C-339.87050781 157.39488281 -339.15507812 156.58664063 -338.41796875 155.75390625 C-332.27990896 148.93066769 -325.87807961 142.38984306 -319.3984375 135.890625 C-318.55514893 135.04274414 -317.71186035 134.19486328 -316.84301758 133.32128906 C-311.9177331 128.40808939 -306.87486877 123.72050447 -301.5859375 119.203125 C-300.50284847 118.25380965 -299.42076817 117.30334183 -298.33984375 116.3515625 C-289.39659246 108.5505653 -280.10578915 101.28522214 -270.5859375 94.203125 C-269.85858398 93.66010742 -269.13123047 93.11708984 -268.38183594 92.55761719 C-192.24129625 35.93166566 -95.33247944 0.36110788 0 0 Z " fill="#25A4E3" transform="translate(463.5859375,-0.203125)"/>
<path d="M0 0 C5.67531271 3.7723479 8.86994568 8.59480729 10.5078125 15.1953125 C12.85209144 30.67530321 10.03777759 46.28866277 7.8926239 61.63264465 C7.12069007 67.19140751 6.41916277 72.75705512 5.7421875 78.328125 C5.63867477 79.17900192 5.53516205 80.02987885 5.42851257 80.90653992 C5.3245668 81.76117325 5.22062103 82.61580658 5.11352539 83.49633789 C3.33183623 98.14522749 1.4360131 112.74781642 -1.02734375 127.30078125 C-1.84016799 132.12813348 -2.56888485 136.96618416 -3.28515625 141.80859375 C-5.60919198 157.4561046 -8.1421914 173.07163829 -10.64453125 188.69140625 C-10.8424999 189.92761278 -10.8424999 189.92761278 -11.04446793 191.18879318 C-18.10695306 235.28466677 -25.34717054 279.33750146 -33.37345886 323.26986694 C-34.4802076 329.33290392 -35.57251362 335.39829999 -36.65098572 341.46643066 C-37.35355325 345.41844047 -38.06070391 349.36962401 -38.76828003 353.32073975 C-39.09378456 355.14431818 -39.4174009 356.96823503 -39.73880005 358.7925415 C-41.44503503 368.46803759 -43.34228325 378.06673274 -45.60546875 387.62890625 C-45.80948303 388.49244217 -46.01349731 389.35597809 -46.22369385 390.24568176 C-49.52830925 403.88588977 -54.56177923 418.40299145 -67.01953125 426.31640625 C-77.05633734 431.42217027 -87.93916401 429.970599 -98.32421875 426.6953125 C-109.74955628 422.43194659 -119.86562618 416.43908728 -129.75927734 409.36303711 C-130.46365433 408.85979416 -131.16803131 408.35655121 -131.89375305 407.83805847 C-133.23252116 406.87975554 -134.57086874 405.92086458 -135.90861511 404.96113586 C-148.06503754 396.24736124 -160.49962028 387.99656718 -173.01953125 379.81640625 C-184.14277423 372.54878926 -195.22479887 365.26171308 -206.04426575 357.54684448 C-212.27653046 353.10814686 -218.62761006 348.86643444 -225.01019287 344.64807129 C-231.16400476 340.56970588 -237.28586033 336.44316598 -243.40991211 332.3203125 C-245.03248123 331.22911392 -246.65619169 330.13961066 -248.28100586 329.05175781 C-280.42375701 307.52676125 -280.42375701 307.52676125 -284.01953125 296.31640625 C-285.26396688 286.85615581 -283.76593475 280.81745329 -278.01953125 273.31640625 C-272.14028146 266.41111717 -265.80469456 259.94244549 -259.38061523 253.54711914 C-257.95113408 252.12303133 -256.52712614 250.69362581 -255.10351562 249.26367188 C-250.50060639 244.66716891 -245.85463497 240.19864557 -240.91674805 235.96411133 C-237.50098351 232.99756971 -234.23927732 229.86644747 -230.95703125 226.75390625 C-229.45857911 225.33828147 -227.95987647 223.9229218 -226.4609375 222.5078125 C-225.71602051 221.80414551 -224.97110352 221.10047852 -224.20361328 220.37548828 C-220.94443107 217.30283651 -217.67090217 214.24570914 -214.39453125 211.19140625 C-213.78335449 210.62147949 -213.17217773 210.05155273 -212.54248047 209.46435547 C-211.31440023 208.31938085 -210.08621072 207.17452342 -208.85791016 206.02978516 C-203.89038094 201.40002154 -198.92601911 196.76687368 -193.96386719 192.13134766 C-191.93444857 190.23698578 -189.90275566 188.34508056 -187.87109375 186.453125 C-181.27171926 180.2977687 -174.71379566 174.13587258 -168.42578125 167.66015625 C-166.45496348 165.74052856 -164.45441429 163.95073037 -162.36962891 162.15991211 C-158.08614612 158.42257489 -154.03361965 154.49191616 -150.01171875 150.4765625 C-149.28260284 149.75077499 -148.55348694 149.02498749 -147.80227661 148.27720642 C-146.27329335 146.75324995 -144.74562935 145.22796881 -143.21923828 143.70141602 C-140.89896302 141.38333383 -138.57079229 139.07338283 -136.2421875 136.76367188 C-134.74820807 135.27262606 -133.25470239 133.78110539 -131.76171875 132.2890625 C-130.73025223 131.26837425 -130.73025223 131.26837425 -129.677948 130.22706604 C-121.56150252 122.48459729 -121.56150252 122.48459729 -117.45703125 112.50390625 C-117.83526437 109.43791895 -117.83526437 109.43791895 -119.01953125 107.37890625 C-122.21135837 105.68324809 -125.51497438 105.91358827 -129.01953125 106.31640625 C-136.36577272 109.41411467 -143.11740163 114.33231933 -149.71875 118.7734375 C-155.65900171 122.75117881 -161.6212012 126.69406436 -167.59765625 130.6171875 C-191.15271051 146.0887714 -214.57963886 161.73705787 -237.92314148 177.52574158 C-244.83078756 182.19517257 -251.76215987 186.82753679 -258.70703125 191.44140625 C-268.96723507 198.25965499 -279.1830403 205.14192868 -289.38980103 212.03982544 C-291.99961216 213.8029494 -294.61034686 215.56469641 -297.22143555 217.32592773 C-298.92497335 218.47508891 -300.62850531 219.62425874 -302.33203125 220.7734375 C-303.16358231 221.33435593 -303.99513336 221.89527435 -304.85188293 222.47319031 C-309.28773386 225.46699414 -313.71727093 228.46969933 -318.13902283 231.48428345 C-342.94471986 248.38639884 -342.94471986 248.38639884 -355.01953125 253.31640625 C-356.06681396 253.75629883 -356.06681396 253.75629883 -357.13525391 254.20507812 C-373.33577198 260.84375705 -388.11713082 260.58533354 -404.9921875 256.76953125 C-407.04859402 256.30991052 -409.11003444 255.88811371 -411.17578125 255.47265625 C-424.00530246 252.83605306 -436.49846455 249.13080419 -449.01953125 245.31640625 C-450.43111464 244.88936104 -451.84273762 244.46244667 -453.25439453 244.03564453 C-457.08270114 242.87612431 -460.90672935 241.7032182 -464.72854614 240.52249146 C-466.22656737 240.06079896 -467.72545925 239.60191954 -469.22531128 239.14620972 C-477.2265203 236.70947737 -485.05289136 234.04605333 -492.7421875 230.7421875 C-493.39417114 230.46584473 -494.04615479 230.18950195 -494.71789551 229.90478516 C-500.64011184 227.27587057 -507.02926463 223.29693949 -510.01953125 217.31640625 C-510.92436898 212.39955217 -511.02100749 208.14071703 -508.57421875 203.68359375 C-504.30635093 198.50697841 -499.49830636 195.16395067 -493.68359375 191.96484375 C-492.98549591 191.57717834 -492.28739807 191.18951294 -491.56814575 190.7901001 C-484.20269597 186.76672896 -476.59941091 183.37803428 -468.89453125 180.06640625 C-467.40503344 179.41862584 -465.91586381 178.77009035 -464.42700195 178.12084961 C-460.67082621 176.48518717 -456.91052091 174.8592787 -453.14886475 173.23626709 C-449.91178854 171.83786724 -446.67859304 170.4305853 -443.4453125 169.0234375 C-436.65674009 166.07220169 -429.86217994 163.13495544 -423.06634521 160.20050049 C-419.36924513 158.60358697 -415.67292994 157.00485846 -411.9765625 155.40625 C-410.40869168 154.72818946 -408.84082059 154.05012957 -407.27294922 153.37207031 C-406.48950134 153.03324829 -405.70605347 152.69442627 -404.89886475 152.34533691 C-402.52394034 151.31831294 -400.14894412 150.29145519 -397.77392578 149.26464844 C-384.36452455 143.46711058 -370.95937461 137.65980099 -357.55566406 131.84912109 C-354.15581489 130.37547755 -350.7556985 128.9024527 -347.35546875 127.4296875 C-346.23454834 126.94411377 -345.11362793 126.45854004 -343.95874023 125.95825195 C-341.58332079 124.92928444 -339.20783016 123.90048123 -336.83227539 122.87182617 C-329.67685535 119.7725417 -322.52432711 116.66669116 -315.37443542 113.55467224 C-270.08132424 93.84149513 -224.67162965 74.40985603 -179.06982422 55.42089844 C-175.73947157 54.03389904 -172.41037269 52.64396223 -169.08251953 51.25097656 C-147.61089458 42.26332075 -126.0640631 33.47369533 -104.45703125 24.81640625 C-102.74066467 24.12750305 -102.74066467 24.12750305 -100.98962402 23.42468262 C-89.06143265 18.64060269 -77.11158849 13.91959403 -65.08984375 9.375 C-64.14390854 9.01494873 -63.19797333 8.65489746 -62.22337341 8.28393555 C-53.34956715 4.95810799 -44.30251495 2.31886219 -35.14477539 -0.10253906 C-33.24160964 -0.62287617 -31.35896535 -1.21695432 -29.48046875 -1.8203125 C-20.32376954 -4.10431986 -8.56220155 -4.22952125 0 0 Z " fill="#FEFEFE" transform="translate(692.01953125,291.68359375)"/>
</svg>
