<?xml version="1.0" encoding="UTF-8"?>
<svg version="1.1" xmlns="http://www.w3.org/2000/svg" width="182" height="182">
<path d="M0 0 C1.05832031 0.37382813 2.11664063 0.74765625 3.20703125 1.1328125 C26.74360851 10.25739059 44.42368018 27.20786583 55.08299255 49.92018127 C60.12645436 61.35900476 61.82026454 72.7385128 61.65185547 85.15673828 C61.62499238 87.50066529 61.65180863 89.83980798 61.68359375 92.18359375 C61.73391388 113.52281181 53.95628086 131.94880172 40 148 C39.54496094 148.598125 39.08992187 149.19625 38.62109375 149.8125 C26.87548738 164.95907299 5.56059448 175.88697626 -13.28869629 178.29202271 C-17.91237148 178.67093025 -22.519984 178.71473655 -27.15673828 178.65185547 C-29.50066529 178.62499238 -31.83980798 178.65180863 -34.18359375 178.68359375 C-55.52281181 178.73391388 -73.94880172 170.95628086 -90 157 C-90.598125 156.54496094 -91.19625 156.08992187 -91.8125 155.62109375 C-108.32679758 142.81486762 -117.51760546 121.03119373 -121 101 C-121.9286559 86.35029301 -121.9502429 71.92862463 -117 58 C-116.62617187 56.94167969 -116.25234375 55.88335937 -115.8671875 54.79296875 C-106.78680443 31.37039123 -89.76531517 13.37828256 -67.04589844 2.85644531 C-46.28118466 -5.83599096 -21.31888619 -7.57674701 0 0 Z " fill="#5EB169" transform="translate(121,4)"/>
<path d="M0 0 C2.72450554 1.69524789 4.75341816 3.29494089 6.8125 5.75 C6.8125 6.41 6.8125 7.07 6.8125 7.75 C4.57554336 6.6729468 2.62594384 5.61141543 0.625 4.125 C-3.35242136 2.18048289 -6.83641617 2.17562546 -11.1875 2.75 C-14.26249469 3.72337194 -14.26249469 3.72337194 -16.1875 5.75 C-16.60530879 8.37694422 -16.60530879 8.37694422 -16.1875 10.75 C-15.2284375 10.4715625 -15.2284375 10.4715625 -14.25 10.1875 C-13.569375 10.043125 -12.88875 9.89875 -12.1875 9.75 C-11.6925 10.245 -11.6925 10.245 -11.1875 10.75 C-9.84002916 10.98075082 -8.48372435 11.16153063 -7.125 11.3125 C-5.825625 11.456875 -4.52625 11.60125 -3.1875 11.75 C-3.5175 12.74 -3.8475 13.73 -4.1875 14.75 C-4.59622999 19.39521282 -4.59622999 19.39521282 -3.125 23.6875 C-0.17581309 25.30479605 2.52117559 24.93630138 5.8125 24.75 C5.33167969 24.35167969 4.85085937 23.95335938 4.35546875 23.54296875 C2.43858175 21.31549753 2.33508357 19.96165331 2.125 17.0625 C2.02638672 15.85013672 2.02638672 15.85013672 1.92578125 14.61328125 C1.86970703 13.69095703 1.86970703 13.69095703 1.8125 12.75 C6.23101107 9.68158954 6.23101107 9.68158954 8.9375 10 C9.55625 10.2475 10.175 10.495 10.8125 10.75 C11.8025 11.08 12.7925 11.41 13.8125 11.75 C15.62755677 15.38011353 14.82134371 19.69280504 14.75 23.68359375 C14.66159275 26.79199474 14.66159275 26.79199474 15.8125 29.75 C15.99655154 34.53533998 15.58339409 39.02827368 14.8125 43.75 C15.864375 43.8325 16.91625 43.915 18 44 C22.11521705 44.8095509 23.84222998 45.86709086 26.8125 48.75 C27.93506131 50.99512262 27.94663762 52.26456649 27.9375 54.75 C27.94136719 55.801875 27.94136719 55.801875 27.9453125 56.875 C27.8125 58.75 27.8125 58.75 26.8125 60.75 C26.1525 60.75 25.4925 60.75 24.8125 60.75 C24.8125 61.41 24.8125 62.07 24.8125 62.75 C23.8225 63.245 23.8225 63.245 22.8125 63.75 C22.12520746 65.86846285 22.12520746 65.86846285 21.6875 68.3125 C21.51992187 69.13878906 21.35234375 69.96507813 21.1796875 70.81640625 C21.05851562 71.45449219 20.93734375 72.09257813 20.8125 72.75 C21.45316406 73.00394531 22.09382813 73.25789063 22.75390625 73.51953125 C27.80472783 75.52932166 32.82730588 77.58252429 37.8125 79.75 C37.895 78.533125 37.9775 77.31625 38.0625 76.0625 C38.59624391 71.94609146 39.58448746 69.54179463 42.8125 66.75 C45.9375 66.3125 45.9375 66.3125 48.8125 66.75 C50.8125 68.75 50.8125 68.75 51.1875 72.4375 C51.01825009 79.86031728 49.35042082 89.13963919 45.046875 95.26171875 C42.8125 96.75 42.8125 96.75 40.0859375 96.77734375 C35.09872538 95.21214472 30.79163573 92.65257906 26.265625 90.07617188 C21.48505807 87.43132753 17.24271434 85.58541759 11.8125 84.75 C9.22635373 85.43437661 9.22635373 85.43437661 7.0625 86.9375 C-0.8844129 91.38341011 -8.38595947 92.79387494 -17.4375 92.6875 C-21.92818191 92.8907207 -23.55330224 93.09125898 -26.7109375 96.37109375 C-28.8411958 99.56944268 -28.8411958 99.56944268 -30.5390625 102.8671875 C-32.18767846 105.7503121 -33.31087346 107.14626669 -36.1875 108.75 C-40.46382448 108.75 -42.53937804 108.27754113 -45.875 105.5625 C-50.57018634 99.85213824 -53.73154985 95.35274791 -53.1875 87.75 C-51.75 84.625 -51.75 84.625 -49.1875 82.75 C-45.28956052 82.53083874 -41.85790741 83.52653086 -38.1875 84.75 C-38.60902344 84.20730469 -39.03054687 83.66460937 -39.46484375 83.10546875 C-40.01269531 82.39003906 -40.56054688 81.67460938 -41.125 80.9375 C-41.67027344 80.22980469 -42.21554688 79.52210937 -42.77734375 78.79296875 C-45.22050594 75.25342906 -45.32330927 72.30818834 -45.3125 68.125 C-45.30863281 66.51431641 -45.30863281 66.51431641 -45.3046875 64.87109375 C-45.20500521 62.21622211 -44.89948276 59.79440272 -44.4375 57.1875 C-43.78292714 52.36984375 -45.47819187 48.80227446 -47.25 44.37890625 C-49.48843615 38.10195822 -48.09775275 32.97633574 -45.83984375 26.91015625 C-45.00632959 24.54757368 -45.00632959 24.54757368 -45.25 21.125 C-45.16911207 16.75705169 -43.82608112 14.16912602 -41.1875 10.75 C-35.61752257 5.71049661 -35.61752257 5.71049661 -31.359375 5.828125 C-30.23015625 5.88484375 -29.1009375 5.9415625 -27.9375 6 C-22.31536309 6.14754012 -22.31536309 6.14754012 -17.6875 3.375 C-16.8625 2.50875 -16.0375 1.6425 -15.1875 0.75 C-10.12150498 -1.97784347 -5.34667791 -2.09673644 0 0 Z " fill="#5B1010" transform="translate(92.1875,38.25)"/>
<path d="M0 0 C4.53772085 0.97023637 8.0072049 2.15249199 11.5625 5.1875 C13.55874098 9.09318888 13.35755781 11.63779468 13 16 C12.67 16.66 12.34 17.32 12 18 C11.34 18 10.68 18 10 18 C10 18.66 10 19.32 10 20 C9.34 20.33 8.68 20.66 8 21 C7.334791 22.51632795 6.74142648 24.06457732 6.1875 25.625 C3.07070888 33.63960573 -1.22271312 39.90603618 -9 44 C-13.28177129 45.36021659 -17.57606041 46.23998987 -22 47 C-23.258125 47.226875 -24.51625 47.45375 -25.8125 47.6875 C-29.57406085 48.05628048 -33.22155602 48.06628849 -37 48 C-37.103125 46.88625 -37.20625 45.7725 -37.3125 44.625 C-37.539375 43.42875 -37.76625 42.2325 -38 41 C-41.8815888 38.41227414 -43.53426477 39.12280201 -48 40 C-49.485 40.495 -49.485 40.495 -51 41 C-51.9841125 39.73299277 -52.96211497 38.4612381 -53.9375 37.1875 C-54.48277344 36.47980469 -55.02804688 35.77210937 -55.58984375 35.04296875 C-59.6842722 29.11115136 -58.21799696 21.63216414 -57 14.9375 C-56.67458428 13.29008291 -56.34408477 11.64361922 -56 10 C-55.34 10 -54.68 10 -54 10 C-54 9.01 -54 8.02 -54 7 C-48.55123997 8.72066106 -43.28830549 10.84705349 -38 13 C-38 13.66 -38 14.32 -38 15 C-37.34 15 -36.68 15 -36 15 C-35.9071875 13.700625 -35.9071875 13.700625 -35.8125 12.375 C-34.75773272 7.99365901 -33.09217359 6.24301132 -30 3 C-25.54916655 0.77458328 -19.47748787 1.52720388 -14.875 3 C-13.946875 3.495 -13.946875 3.495 -13 4 C-12.34 3.34 -11.68 2.68 -11 2 C-7.21331872 -0.52445419 -4.36132066 -0.63862195 0 0 Z " fill="#F31F01" transform="translate(107,81)"/>
<path d="M0 0 C2.72450554 1.69524789 4.75341816 3.29494089 6.8125 5.75 C6.8125 6.41 6.8125 7.07 6.8125 7.75 C4.57554336 6.6729468 2.62594384 5.61141543 0.625 4.125 C-3.35242136 2.18048289 -6.83641617 2.17562546 -11.1875 2.75 C-14.26249469 3.72337194 -14.26249469 3.72337194 -16.1875 5.75 C-16.60530879 8.37694422 -16.60530879 8.37694422 -16.1875 10.75 C-15.548125 10.564375 -14.90875 10.37875 -14.25 10.1875 C-13.569375 10.043125 -12.88875 9.89875 -12.1875 9.75 C-11.8575 10.08 -11.5275 10.41 -11.1875 10.75 C-9.84002916 10.98075082 -8.48372435 11.16153063 -7.125 11.3125 C-5.825625 11.456875 -4.52625 11.60125 -3.1875 11.75 C-3.5175 12.74 -3.8475 13.73 -4.1875 14.75 C-4.59622999 19.39521282 -4.59622999 19.39521282 -3.125 23.6875 C-0.17581309 25.30479605 2.52117559 24.93630138 5.8125 24.75 C5.33167969 24.35167969 4.85085937 23.95335938 4.35546875 23.54296875 C2.43858175 21.31549753 2.33508357 19.96165331 2.125 17.0625 C2.02638672 15.85013672 2.02638672 15.85013672 1.92578125 14.61328125 C1.86970703 13.69095703 1.86970703 13.69095703 1.8125 12.75 C6.23101107 9.68158954 6.23101107 9.68158954 8.9375 10 C9.55625 10.2475 10.175 10.495 10.8125 10.75 C11.8025 11.08 12.7925 11.41 13.8125 11.75 C15.62755677 15.38011353 14.82134371 19.69280504 14.75 23.68359375 C14.66159275 26.79199474 14.66159275 26.79199474 15.8125 29.75 C15.98151076 34.22878512 15.67034339 38.35355264 14.8125 42.75 C14.13703125 42.85957031 13.4615625 42.96914062 12.765625 43.08203125 C11.87359375 43.24058594 10.9815625 43.39914063 10.0625 43.5625 C9.18078125 43.71332031 8.2990625 43.86414063 7.390625 44.01953125 C4.6214089 44.80414248 2.9865599 45.89595359 0.8125 47.75 C0.255625 47.42644531 -0.30125 47.10289063 -0.875 46.76953125 C-3.48591041 45.6184373 -5.34485817 45.45049989 -8.1875 45.4375 C-9.033125 45.42074219 -9.87875 45.40398437 -10.75 45.38671875 C-13.66552454 45.82124404 -14.88870782 46.97028993 -17.1875 48.75 C-20.70578369 49.38906325 -24.12106675 49.03064033 -27.5625 48.125 C-30.07308624 46.0006578 -30.55329094 43.92104528 -31.1875 40.75 C-30.3125 38.375 -30.3125 38.375 -29.1875 36.75 C-28.5275 36.75 -27.8675 36.75 -27.1875 36.75 C-27.826875 35.698125 -28.46625 34.64625 -29.125 33.5625 C-30.80504452 30.64171588 -31.77746052 28.1328257 -32.1875 24.75 C-31.1975 24.42 -30.2075 24.09 -29.1875 23.75 C-28.94 24.69875 -28.6925 25.6475 -28.4375 26.625 C-27.48396353 29.71705961 -27.48396353 29.71705961 -25.5625 31.125 C-20.89569467 32.35310667 -16.84195408 32.28949589 -12.3125 30.8125 C-9.15678737 27.74960245 -8.31584397 24.10614533 -8.1875 19.75 C-8.86111847 17.51128411 -8.86111847 17.51128411 -10.1875 15.75 C-15.52396866 13.97117711 -20.14008476 14.30276837 -25.1875 16.75 C-25.8475 16.09 -26.5075 15.43 -27.1875 14.75 C-26.5275 13.76 -25.8675 12.77 -25.1875 11.75 C-22.10828868 11.49339906 -19.97613007 11.35568496 -17.1875 12.75 C-17.1875 12.09 -17.1875 11.43 -17.1875 10.75 C-23.07900793 9.31564898 -28.19515276 8.13667574 -34.1875 9.75 C-36.22799422 11.0204964 -38.23767465 12.34431196 -40.1875 13.75 C-40.8475 13.75 -41.5075 13.75 -42.1875 13.75 C-41.02187533 10.48625091 -39.21328524 8.36245049 -36.29296875 6.48046875 C-33.35673829 5.46177655 -30.78234032 5.6889887 -27.6875 5.8125 C-22.19595953 6.09305392 -22.19595953 6.09305392 -17.6875 3.375 C-16.8625 2.50875 -16.0375 1.6425 -15.1875 0.75 C-10.12150498 -1.97784347 -5.34667791 -2.09673644 0 0 Z " fill="#246106" transform="translate(92.1875,38.25)"/>
<path d="M0 0 C0 0.66 0 1.32 0 2 C-2.64 1.67 -5.28 1.34 -8 1 C-8 2.32 -8 3.64 -8 5 C-7.319375 4.67 -6.63875 4.34 -5.9375 4 C-1.30912996 2.42438467 2.39269796 2.26623168 6.875 4.3125 C9 6 9 6 10 9 C9.765625 11.15625 9.765625 11.15625 9.25 13.5 C9.01023437 14.66015625 9.01023437 14.66015625 8.765625 15.84375 C7.89616323 18.29243825 7.02173587 19.3904627 5 21 C0.0492397 22.65025343 -4.28075409 22.8413331 -8.9375 20.5625 C-11 19 -11 19 -12 18 C-12.04063832 16.33382885 -12.042721 14.66611905 -12 13 C-12.66 13.33 -13.32 13.66 -14 14 C-13.79503906 14.61488281 -13.59007813 15.22976562 -13.37890625 15.86328125 C-12.25260417 19.2421875 -11.12630208 22.62109375 -10 26 C-10.66 26.33 -11.32 26.66 -12 27 C-13.08352672 30.64458987 -12.95514044 32.17943822 -12 36 C-8.37 36.66 -4.74 37.32 -1 38 C-1.99 40.97 -2.98 43.94 -4 47 C-4.66 47 -5.32 47 -6 47 C-6 46.34 -6 45.68 -6 45 C-7.43657245 44.66269158 -8.87430093 44.33030409 -10.3125 44 C-11.51326172 43.7215625 -11.51326172 43.7215625 -12.73828125 43.4375 C-15.10695938 42.90504177 -15.10695938 42.90504177 -18 43 C-20.1875 41 -20.1875 41 -22 39 C-22 39.99 -22 40.98 -22 42 C-22.66 42 -23.32 42 -24 42 C-25.32 39.03 -26.64 36.06 -28 33 C-28.66 33 -29.32 33 -30 33 C-31.91064071 29.17871859 -31.50955033 24.73010113 -30.328125 20.71875 C-29.77782433 19.20282741 -29.22316062 17.68848129 -28.6640625 16.17578125 C-27.72426236 13.09655373 -27.872273 10.19317512 -28 7 C-26.74248595 3.22745785 -25.50599175 2.82519524 -22.125 0.875 C-20.79855469 0.09769531 -20.79855469 0.09769531 -19.4453125 -0.6953125 C-13.08992017 -4.08620873 -6.38813807 -3.09103455 0 0 Z " fill="#06A08D" transform="translate(75,49)"/>
<path d="M0 0 C4.40147657 0.50302589 6.75395419 2.02445801 10 5 C11.12256131 7.24512262 11.13413762 8.51456649 11.125 11 C11.12886719 12.051875 11.12886719 12.051875 11.1328125 13.125 C11 15 11 15 10 17 C9.34 17 8.68 17 8 17 C8 17.66 8 18.32 8 19 C7.39414063 19.21914062 6.78828125 19.43828125 6.1640625 19.6640625 C1.51006315 21.42542225 -2.72644114 23.33682634 -6.9375 26 C-18.25783449 32.90435261 -30.09720723 35.30612982 -43.13671875 32.26953125 C-48.00162282 30.48791466 -51.93191967 28.29531246 -55 24 C-55.57991403 19.85775694 -55.34549674 18.51824511 -53 15 C-48.40662511 15.54683034 -45.08227107 16.87011944 -41 19 C-35.67176043 20.95368784 -29.41720961 20.3543024 -24 19 C-24.33 18.67 -24.66 18.34 -25 18 C-24.71269945 15.66055264 -24.38063221 13.3260857 -24 11 C-19.89619375 10.14106381 -17.0598393 10.13003444 -13 11 C-7.53314589 11.17924112 -2.41088597 10.77298371 3 10 C3.30495485 5.57335436 3.30495485 5.57335436 1.5 1.625 C1.005 1.08875 0.51 0.5525 0 0 Z " fill="#4A0D29" transform="translate(109,82)"/>
<path d="M0 0 C2.875 0.4375 2.875 0.4375 4.875 2.4375 C5.73993638 10.94270769 4.09735073 21.85349222 -0.890625 28.94921875 C-3.125 30.4375 -3.125 30.4375 -5.8203125 30.47265625 C-10.18977117 29.10397239 -14.00364942 27.08653977 -18 24.875 C-18.78375 24.45025391 -19.5675 24.02550781 -20.375 23.58789062 C-22.29586931 22.54546765 -24.21102613 21.49253014 -26.125 20.4375 C-25.135 16.4775 -24.145 12.5175 -23.125 8.4375 C-17.80312773 9.65126034 -13.08593728 11.16373708 -8.125 13.4375 C-8.0425 12.220625 -7.96 11.00375 -7.875 9.75 C-7.19278724 4.48855088 -5.66604954 0.79324694 0 0 Z " fill="#64550B" transform="translate(138.125,104.5625)"/>
<path d="M0 0 C3.81797427 0.85421603 5.47594056 2.46290825 8.0078125 5.44921875 C7.8828125 8.76171875 7.8828125 8.76171875 7.0078125 11.44921875 C-2.24501374 14.09288339 -10.51344744 13.4249714 -19.9921875 12.44921875 C-20.26151271 17.09974747 -20.26151271 17.09974747 -18.9921875 21.44921875 C-23.75526187 22.40183362 -28.1588403 22.53255232 -32.9921875 22.44921875 C-34.18332983 18.72689897 -34.32721133 15.33549514 -33.9921875 11.44921875 C-31.88157797 7.52951534 -29.76873135 4.79680006 -25.9921875 2.44921875 C-20.8212929 1.66727859 -15.66033304 1.95954113 -10.9921875 4.44921875 C-10.3321875 3.78921875 -9.6721875 3.12921875 -8.9921875 2.44921875 C-5.84426316 0.35060252 -3.78697366 -0.20878752 0 0 Z " fill="#FE83ED" transform="translate(104.9921875,80.55078125)"/>
<path d="M0 0 C1.05424115 2.68521423 1.12687274 3.7066664 -0.0390625 6.40234375 C-2.98907212 11.11799952 -5.7694448 15.31182367 -10 19 C-10.78375 19.78375 -11.5675 20.5675 -12.375 21.375 C-15 23 -15 23 -18.3125 23.0625 C-24.59375305 21.25264743 -29.26258742 18.41002006 -33 13 C-32.18917969 12.85304688 -31.37835938 12.70609375 -30.54296875 12.5546875 C-21.66756752 10.75687631 -14.08825575 7.91618953 -6.86328125 2.35546875 C-4.61597511 0.72063598 -2.72572953 0.37857355 0 0 Z " fill="#EB3ECC" transform="translate(113,102)"/>
<path d="M0 0 C2.70792245 1.35396122 3.29196105 3.24335874 4.3984375 5.96484375 C5.6242324 10.11185118 5.36659114 14.21286822 4.5 18.4375 C3.24091774 24.89029656 3.32668531 30.35883815 7 36 C9.06167261 38.31418291 9.06167261 38.31418291 11 40 C12.485 39.505 12.485 39.505 14 39 C14.66 39.66 15.32 40.32 16 41 C14.68 41.99 13.36 42.98 12 44 C12.144375 44.5775 12.28875 45.155 12.4375 45.75 C12.95833333 47.83333333 13.47916667 49.91666667 14 52 C10.81309178 50.81966362 9.79867381 49.73337883 7.6875 46.9375 C5.20668591 43.66743234 5.20668591 43.66743234 1.1875 43.125 C0.135625 43.08375 -0.91625 43.0425 -2 43 C-4.23551759 46.35327639 -4.17283528 46.90743657 -3.625 50.6875 C-3.51414063 51.49574219 -3.40328125 52.30398437 -3.2890625 53.13671875 C-3.19367187 53.75160156 -3.09828125 54.36648437 -3 55 C-2.34 55 -1.68 55 -1 55 C-1 53.35 -1 51.7 -1 50 C2.62885578 51.45154231 4.15432673 53.2400638 6.25 56.5 C6.77078125 57.2940625 7.2915625 58.088125 7.828125 58.90625 C9 61 9 61 9 63 C11.475 62.505 11.475 62.505 14 62 C12.4375 64.0625 12.4375 64.0625 10 66 C5.69995318 66.07818267 3.66032577 65.53747447 0.3125 62.8125 C-4.38268634 57.10213824 -7.54404985 52.60274791 -7 45 C-5.5625 41.875 -5.5625 41.875 -3 40 C0.89793948 39.78083874 4.32959259 40.77653086 8 42 C7.57847656 41.45730469 7.15695313 40.91460937 6.72265625 40.35546875 C6.17480469 39.64003906 5.62695312 38.92460938 5.0625 38.1875 C4.51722656 37.47980469 3.97195312 36.77210937 3.41015625 36.04296875 C-0.74590418 30.02186181 0.57976835 21.21452028 1.6875 14.3125 C2.35111771 9.41607747 0.87603324 5.48340147 -1 1 C-0.67 0.67 -0.34 0.34 0 0 Z " fill="#621802" transform="translate(46,81)"/>
<path d="M0 0 C0.66 0 1.32 0 2 0 C3.66965451 0.31802943 5.33678518 0.64984951 7 1 C7.13496251 3.10241603 7.23197307 5.2072961 7.3125 7.3125 C7.37050781 8.48425781 7.42851563 9.65601562 7.48828125 10.86328125 C7 14 7 14 4.59765625 15.83984375 C3.74042969 16.22269531 2.88320313 16.60554688 2 17 C1.38125 17.4125 0.7625 17.825 0.125 18.25 C-3.12113534 19.39569483 -5.6961311 18.73419309 -9 18 C-11 16 -11 16 -11.265625 14.046875 C-11.23358498 9.33699225 -10.96880507 5.37512239 -9 1 C-6.0387106 -0.4806447 -3.26914933 -0.05837767 0 0 Z " fill="#4DA55E" transform="translate(32,79)"/>
<path d="M0 0 C2.72450554 1.69524789 4.75341816 3.29494089 6.8125 5.75 C6.8125 6.41 6.8125 7.07 6.8125 7.75 C4.57554336 6.6729468 2.62594384 5.61141543 0.625 4.125 C-3.35242136 2.18048289 -6.83641617 2.17562546 -11.1875 2.75 C-14.26249469 3.72337194 -14.26249469 3.72337194 -16.1875 5.75 C-16.60530879 8.37694422 -16.60530879 8.37694422 -16.1875 10.75 C-15.548125 10.564375 -14.90875 10.37875 -14.25 10.1875 C-13.569375 10.043125 -12.88875 9.89875 -12.1875 9.75 C-11.8575 10.08 -11.5275 10.41 -11.1875 10.75 C-9.84002916 10.98075082 -8.48372435 11.16153063 -7.125 11.3125 C-5.825625 11.456875 -4.52625 11.60125 -3.1875 11.75 C-3.8475 14.06 -4.5075 16.37 -5.1875 18.75 C-9.1875 16.75 -9.1875 16.75 -11 15.625 C-15.12549943 13.97480023 -18.98243745 14.33976594 -23.125 15.75 C-23.805625 16.08 -24.48625 16.41 -25.1875 16.75 C-25.8475 16.09 -26.5075 15.43 -27.1875 14.75 C-26.5275 13.76 -25.8675 12.77 -25.1875 11.75 C-22.10828868 11.49339906 -19.97613007 11.35568496 -17.1875 12.75 C-17.1875 12.09 -17.1875 11.43 -17.1875 10.75 C-23.07900793 9.31564898 -28.19515276 8.13667574 -34.1875 9.75 C-36.22799422 11.0204964 -38.23767465 12.34431196 -40.1875 13.75 C-40.8475 13.75 -41.5075 13.75 -42.1875 13.75 C-41.02187533 10.48625091 -39.21328524 8.36245049 -36.29296875 6.48046875 C-33.35673829 5.46177655 -30.78234032 5.6889887 -27.6875 5.8125 C-22.19595953 6.09305392 -22.19595953 6.09305392 -17.6875 3.375 C-16.8625 2.50875 -16.0375 1.6425 -15.1875 0.75 C-10.12150498 -1.97784347 -5.34667791 -2.09673644 0 0 Z " fill="#714C0C" transform="translate(92.1875,38.25)"/>
<path d="M0 0 C0.350625 0.45375 0.70125 0.9075 1.0625 1.375 C3.77096206 3.64661334 6.60795328 4.16798854 10 5 C10.33 6.32 10.66 7.64 11 9 C14.63 9.66 18.26 10.32 22 11 C21.01 13.97 20.02 16.94 19 20 C18.34 20 17.68 20 17 20 C17 19.34 17 18.68 17 18 C15.56342755 17.66269158 14.12569907 17.33030409 12.6875 17 C11.88699219 16.814375 11.08648437 16.62875 10.26171875 16.4375 C7.89304062 15.90504177 7.89304062 15.90504177 5 16 C2.8125 14 2.8125 14 1 12 C1 12.99 1 13.98 1 15 C0.34 15 -0.32 15 -1 15 C-1.67119549 13.5437455 -2.33681807 12.08492133 -3 10.625 C-3.37125 9.81289062 -3.7425 9.00078125 -4.125 8.1640625 C-5 6 -5 6 -5 4 C-4.34 4 -3.68 4 -3 4 C-3 3.01 -3 2.02 -3 1 C-2.01 0.67 -1.02 0.34 0 0 Z " fill="#5A0167" transform="translate(52,76)"/>
<path d="M0 0 C-1.03430962 3.0382845 -1.79627584 3.89280793 -4.6875 5.4140625 C-16.57701096 9.76046391 -26.31192831 11.32908543 -39 11 C-39 11.99 -39 12.98 -39 14 C-35.83233858 13.54838199 -32.66609475 13.08746328 -29.5 12.625 C-28.613125 12.49867187 -27.72625 12.37234375 -26.8125 12.2421875 C-19.48764155 11.16500243 -12.49960156 9.78926689 -5.625 6.9375 C-4.79226562 6.59589844 -3.95953125 6.25429687 -3.1015625 5.90234375 C-1.71673323 5.30774233 -0.34797714 4.67398857 1 4 C0.85546875 5.8359375 0.85546875 5.8359375 0 8 C-2.51171875 9.4140625 -2.51171875 9.4140625 -5.6875 10.625 C-7.24017578 11.23214844 -7.24017578 11.23214844 -8.82421875 11.8515625 C-18.82290361 15.46732308 -28.32919722 16.89175264 -39 16 C-41 14 -41 14 -41.125 11.375 C-41.08375 10.59125 -41.0425 9.8075 -41 9 C-38.01915947 7.50957973 -34.90054973 7.75594652 -31.625 7.625 C-20.77154745 7.05575445 -9.81646952 0 0 0 Z " fill="#4AAB1A" transform="translate(105,68)"/>
<path d="M0 0 C0.69222656 0.08765625 1.38445312 0.1753125 2.09765625 0.265625 C3.9375 0.75 3.9375 0.75 5.9375 2.75 C6.203125 5.71875 6.203125 5.71875 6.1875 9.25 C6.19265625 10.4153125 6.1978125 11.580625 6.203125 12.78125 C5.9375 15.75 5.9375 15.75 3.9375 17.75 C0.20024762 18.66668455 -2.29170029 18.97959991 -6 17.875 C-8.48155457 15.31824681 -8.36411806 14.51751713 -8.375 11.0625 C-8.29467143 9.62347107 -8.19786774 8.18489809 -8.0625 6.75 C-7.4025 6.75 -6.7425 6.75 -6.0625 6.75 C-6.3925 5.1 -6.7225 3.45 -7.0625 1.75 C-3.88217735 -0.3702151 -3.51682601 -0.4995865 0 0 Z " fill="#4DA55E" transform="translate(151.0625,79.25)"/>
<path d="M0 0 C1.08410156 -0.00257812 2.16820313 -0.00515625 3.28515625 -0.0078125 C5.9375 0.125 5.9375 0.125 6.9375 1.125 C7.00994053 3.14464199 7.02127188 5.16667124 7 7.1875 C6.99097656 8.29222656 6.98195312 9.39695312 6.97265625 10.53515625 C6.96105469 11.38980469 6.94945312 12.24445312 6.9375 13.125 C1.92125652 16.13474609 -1.37187216 16.50437519 -7.0625 16.125 C-7.7225 15.795 -8.3825 15.465 -9.0625 15.125 C-9.0625 12.485 -9.0625 9.845 -9.0625 7.125 C-8.0725 7.125 -7.0825 7.125 -6.0625 7.125 C-6.7225 6.795 -7.3825 6.465 -8.0625 6.125 C-8.0625 4.475 -8.0625 2.825 -8.0625 1.125 C-5.31744537 -0.24752731 -3.05922588 -0.00729255 0 0 Z " fill="#4DA55E" transform="translate(121.0625,26.875)"/>
<path d="M0 0 C0.66 0.33 1.32 0.66 2 1 C1.67 1.66 1.34 2.32 1 3 C0.77049681 5.204364 0.58924067 7.41392173 0.4375 9.625 C0.35371094 10.81351563 0.26992188 12.00203125 0.18359375 13.2265625 C0.12300781 14.14179687 0.06242187 15.05703125 0 16 C0.33 15.34 0.66 14.68 1 14 C1.99 14 2.98 14 4 14 C4 15.65 4 17.3 4 19 C5.32 19 6.64 19 8 19 C8 19.66 8 20.32 8 21 C10.31 21 12.62 21 15 21 C15 21.66 15 22.32 15 23 C14.34 23.33 13.68 23.66 13 24 C11.86649466 26.01669827 11.86649466 26.01669827 11 28 C7.625 28.1875 7.625 28.1875 4 28 C3.34 27.01 2.68 26.02 2 25 C1.01 25 0.02 25 -1 25 C-1 25.99 -1 26.98 -1 28 C-2.98 28.99 -2.98 28.99 -5 30 C-6.91064071 26.17871859 -6.50955033 21.73010113 -5.328125 17.71875 C-4.77782433 16.20282741 -4.22316062 14.68848129 -3.6640625 13.17578125 C-2.72426236 10.09655373 -2.872273 7.19317512 -3 4 C-2.67 3.01 -2.34 2.02 -2 1 C-1.34 0.67 -0.68 0.34 0 0 Z " fill="#3D4D9B" transform="translate(50,52)"/>
<path d="M0 0 C5.22124598 1.54069553 7.81514671 4.6699673 10.8125 9.125 C10.8125 9.785 10.8125 10.445 10.8125 11.125 C12.1325 11.455 13.4525 11.785 14.8125 12.125 C13.5705393 15.56427579 12.25509716 18.37707819 9.8125 21.125 C9.1525 21.125 8.4925 21.125 7.8125 21.125 C6.4130541 19.19201535 5.09141407 17.20225985 3.8125 15.1875 C1.4364883 10.99000495 1.4364883 10.99000495 -2.1875 8.125 C-2.1875 9.775 -2.1875 11.425 -2.1875 13.125 C-2.8475 13.125 -3.5075 13.125 -4.1875 13.125 C-6.21642674 9.06714651 -6.35635197 6.5081949 -5.1875 2.125 C-3.1875 0.125 -3.1875 0.125 0 0 Z " fill="#F49503" transform="translate(47.1875,122.875)"/>
<path d="M0 0 C0.66 0 1.32 0 2 0 C2.23074219 0.62648437 2.46148437 1.25296875 2.69921875 1.8984375 C4.6234904 7.12227926 4.6234904 7.12227926 8.75 10.5625 C9.4925 10.706875 10.235 10.85125 11 11 C11 11.66 11 12.32 11 13 C9.62708132 13.48509793 8.25153297 13.96275513 6.875 14.4375 C6.10929687 14.70433594 5.34359375 14.97117187 4.5546875 15.24609375 C-0.98305054 16.88031919 -6.44151162 17.20763327 -12.1875 17.25 C-12.89841797 17.270625 -13.60933594 17.29125 -14.34179688 17.3125 C-19.46412927 17.35105001 -19.46412927 17.35105001 -21.9140625 15.74609375 C-23.82351249 12.67586301 -24.25007957 9.51885742 -25 6 C-24.01 5.67 -23.02 5.34 -22 5 C-21.7525 5.94875 -21.505 6.8975 -21.25 7.875 C-20.29646353 10.96705961 -20.29646353 10.96705961 -18.375 12.375 C-13.70819467 13.60310667 -9.65445408 13.53949589 -5.125 12.0625 C-2.27871442 9.2999287 -1.98052455 6.79964173 -1.359375 2.9609375 C-1 1 -1 1 0 0 Z " fill="#254954" transform="translate(85,57)"/>
<path d="M0 0 C3.31540566 0.39469115 5.75173018 0.8614308 8.6875 2.5 C13.35190623 4.61218395 17.93164819 4.73846583 23 5 C24.09658936 8.28976808 23.79953138 9.71303767 23 13 C13.81709073 13.61791539 7.63795195 12.09196797 0 7 C-0.1875 3.375 -0.1875 3.375 0 0 Z " fill="#E21718" transform="translate(57,100)"/>
<path d="M0 0 C0.61875 0.2475 1.2375 0.495 1.875 0.75 C2.865 1.08 3.855 1.41 4.875 1.75 C6.10191067 4.20382134 6.07675931 5.94984103 6.125 8.6875 C6.16367188 10.00041016 6.16367188 10.00041016 6.203125 11.33984375 C5.81270992 14.20753546 5.12822599 15.00539055 2.875 16.75 C-0.14368434 18.25934217 -2.79797229 17.92510672 -6.125 17.75 C-7.115 17.09 -8.105 16.43 -9.125 15.75 C-7.145 15.42 -5.165 15.09 -3.125 14.75 C-3.60582031 14.35167969 -4.08664063 13.95335937 -4.58203125 13.54296875 C-6.49891825 11.31549753 -6.60241643 9.96165331 -6.8125 7.0625 C-6.87824219 6.25425781 -6.94398437 5.44601563 -7.01171875 4.61328125 C-7.04910156 3.99839844 -7.08648437 3.38351563 -7.125 2.75 C-2.70648893 -0.31841046 -2.70648893 -0.31841046 0 0 Z " fill="#194B58" transform="translate(101.125,48.25)"/>
<path d="M0 0 C3.625 0.25 3.625 0.25 5.33203125 1.48828125 C6.96077963 3.70751242 6.99734774 4.9575225 6.9375 7.6875 C6.93363281 8.44933594 6.92976563 9.21117187 6.92578125 9.99609375 C6.5989386 12.44529127 5.84454601 14.11700917 4.625 16.25 C3.16707116 16.30399736 1.70857288 16.34279177 0.25 16.375 C-0.96816406 16.40980469 -0.96816406 16.40980469 -2.2109375 16.4453125 C-4.375 16.25 -4.375 16.25 -6.375 14.25 C-6.70252234 11.53545044 -6.5058425 8.99769241 -6.375 6.25 C-6.045 5.92 -5.715 5.59 -5.375 5.25 C-5.21 4.59 -5.045 3.93 -4.875 3.25 C-4.03476027 -0.11095891 -3.68701404 0.27311215 0 0 Z " fill="#4DA45D" transform="translate(60.375,26.75)"/>
<path d="M0 0 C5.77378925 0.4811491 9.95859836 2.18467181 15 5 C15 7.64 15 10.28 15 13 C14.01 13.495 14.01 13.495 13 14 C12.34 13.67 11.68 13.34 11 13 C11 13.66 11 14.32 11 15 C6.00370856 13.50111257 1.61736167 11.38829052 -3 9 C-2.01 6.03 -1.02 3.06 0 0 Z " fill="#123246" transform="translate(115,116)"/>
<path d="M0 0 C2 2 2 2 2.4375 5.375 C2 9 2 9 -0.125 11.4375 C-3.49379821 13.26836859 -5.22527006 13.64250722 -9 13 C-11.375 11.4375 -11.375 11.4375 -13 9 C-13.51940654 5.2992284 -13.78573005 3.09318963 -11.5625 0 C-7.69097933 -1.51083733 -3.99030961 -1.02453895 0 0 Z " fill="#15363E" transform="translate(79,57)"/>
<path d="M0 0 C0.33 -0.33 0.66 -0.66 1 -1 C1.99 -0.67 2.98 -0.34 4 0 C4 3.63 4 7.26 4 11 C3.34 11 2.68 11 2 11 C1.608125 11.495 1.21625 11.99 0.8125 12.5 C-2.00993974 14.8358122 -4.47262616 14.32067035 -8 14 C-10 12 -10 12 -10.125 8.375 C-10.08375 7.26125 -10.0425 6.1475 -10 5 C-9.34 5 -8.68 5 -8 5 C-8.33 3.35 -8.66 1.7 -9 0 C-5.51555023 -1.16148326 -3.55879018 -0.61892003 0 0 Z " fill="#50A760" transform="translate(94,133)"/>
<path d="M0 0 C0.99 0.33 1.98 0.66 3 1 C4.21694554 5.99955331 3.6010634 9.84305051 2.1875 14.6875 C2.00896484 15.35072266 1.83042969 16.01394531 1.64648438 16.69726562 C0.75642732 19.88797558 -0.14638611 22.21957917 -2 25 C-3.98 24.67 -5.96 24.34 -8 24 C-7.29265846 15.79111533 -5.57731047 8.45273014 -2 1 C-1.34 0.67 -0.68 0.34 0 0 Z " fill="#38A501" transform="translate(137,107)"/>
<path d="M0 0 C5.46341463 2.92682927 5.46341463 2.92682927 7 6 C0.48810124 10.4336332 -4.38592494 10.75331838 -12.0625 9.5 C-12.701875 9.335 -13.34125 9.17 -14 9 C-14.33 7.35 -14.66 5.7 -15 4 C-10.16428975 0.03223775 -6.24182525 -1.13690388 0 0 Z " fill="#93AA15" transform="translate(90,40)"/>
<path d="M0 0 C0.99 0.33 1.98 0.66 3 1 C2.2265625 1.7115625 2.2265625 1.7115625 1.4375 2.4375 C-0.73486467 6.30997616 0.24666846 9.75229924 1 14 C1.66 14 2.32 14 3 14 C3 12.35 3 10.7 3 9 C6.62885578 10.45154231 8.15432673 12.2400638 10.25 15.5 C10.77078125 16.2940625 11.2915625 17.088125 11.828125 17.90625 C13 20 13 20 13 22 C14.65 21.67 16.3 21.34 18 21 C16.4375 23.0625 16.4375 23.0625 14 25 C9.69995318 25.07818267 7.66032577 24.53747447 4.3125 21.8125 C-0.40246071 16.07808833 -3.43349582 11.61507664 -3 4 C-1.5625 1.4375 -1.5625 1.4375 0 0 Z " fill="#0A4D2A" transform="translate(42,122)"/>
<path d="M0 0 C0 0.66 0 1.32 0 2 C-2.64 1.67 -5.28 1.34 -8 1 C-8 2.32 -8 3.64 -8 5 C-8 5.66 -8 6.32 -8 7 C-11 9 -11 9 -13.9375 8.75 C-16.59526679 8.09911834 -18.64517067 7.35855538 -21 6 C-21 6.66 -21 7.32 -21 8 C-21.66 7.67 -22.32 7.34 -23 7 C-23.375 4.75 -23.375 4.75 -23 2 C-15.676187 -3.8590504 -8.36566722 -4.04790349 0 0 Z " fill="#18A258" transform="translate(75,49)"/>
<path d="M0 0 C0.66 0.33 1.32 0.66 2 1 C2.61287935 9.12065137 2.61287935 9.12065137 0.5625 12.0625 C-3.27344153 13.46589324 -6.96070821 13.23303606 -11 13 C-11.125 10.125 -11.125 10.125 -11 7 C-10.34 6.34 -9.68 5.68 -9 5 C-9 3.68 -9 2.36 -9 1 C-6.01405576 -0.49297212 -3.29146376 -0.11755228 0 0 Z " fill="#4EA45D" transform="translate(16,111)"/>
<path d="M0 0 C1.60875 0.020625 3.2175 0.04125 4.875 0.0625 C4.875 3.6925 4.875 7.3225 4.875 11.0625 C0.63570385 13.18214808 -1.48399787 13.40627794 -6.125 13.0625 C-8.125 11.0625 -8.125 11.0625 -8.25 7.9375 C-8.20875 6.98875 -8.1675 6.04 -8.125 5.0625 C-7.465 5.0625 -6.805 5.0625 -6.125 5.0625 C-6.455 3.7425 -6.785 2.4225 -7.125 1.0625 C-4.60024538 -0.19987731 -2.81299534 -0.03606404 0 0 Z " fill="#4EA55E" transform="translate(143.125,50.9375)"/>
<path d="M0 0 C8.25 0 16.5 0 25 0 C25 0.66 25 1.32 25 2 C24.34 2 23.68 2 23 2 C23 3.32 23 4.64 23 6 C15.55791648 8.13362486 8.30384552 7.16410238 1 5 C0.67 3.35 0.34 1.7 0 0 Z " fill="#F6621A" transform="translate(86,95)"/>
<path d="M0 0 C1 1 1 1 1.09765625 3.28515625 C1.08605469 4.20167969 1.07445313 5.11820313 1.0625 6.0625 C1.05347656 6.98160156 1.04445313 7.90070312 1.03515625 8.84765625 C1.02355469 9.55792969 1.01195313 10.26820312 1 11 C-2.47745199 12.58969234 -5.16442626 13.41465662 -9 13 C-9.66 12.34 -10.32 11.68 -11 11 C-10.9765625 8.6171875 -10.9765625 8.6171875 -10.625 5.875 C-10.51414062 4.96492187 -10.40328125 4.05484375 -10.2890625 3.1171875 C-10.19367188 2.41851562 -10.09828125 1.71984375 -10 1 C-6.50615721 -0.16461426 -3.66344611 -0.13568319 0 0 Z " fill="#51A761" transform="translate(96,10)"/>
<path d="M0 0 C3.65996593 0.84186351 5.4675726 2.73437883 8.00390625 5.4609375 C8.00390625 6.4509375 8.00390625 7.4409375 8.00390625 8.4609375 C7.34390625 8.4609375 6.68390625 8.4609375 6.00390625 8.4609375 C5.26140625 7.6359375 4.51890625 6.8109375 3.75390625 5.9609375 C1.23239222 3.24371291 1.23239222 3.24371291 -1.99609375 2.8359375 C-5.92270107 3.65398069 -7.44187908 5.45597907 -9.99609375 8.4609375 C-14.74609375 6.5859375 -14.74609375 6.5859375 -16.99609375 5.4609375 C-18.47277712 5.3656676 -19.95384832 5.33107791 -21.43359375 5.3359375 C-22.21605469 5.33335938 -22.99851562 5.33078125 -23.8046875 5.328125 C-26.17504722 5.37711202 -26.17504722 5.37711202 -28.99609375 6.4609375 C-31.51776887 11.63700748 -31.19581607 16.84652126 -30.99609375 22.4609375 C-31.65609375 22.4609375 -32.31609375 22.4609375 -32.99609375 22.4609375 C-34.18723608 18.73861772 -34.33111758 15.34721389 -33.99609375 11.4609375 C-31.88548422 7.54123409 -29.7726376 4.80851881 -25.99609375 2.4609375 C-20.82519915 1.67899734 -15.66423929 1.97125988 -10.99609375 4.4609375 C-10.33609375 3.8009375 -9.67609375 3.1409375 -8.99609375 2.4609375 C-5.84651643 0.36121929 -3.7869666 -0.18683327 0 0 Z " fill="#FA05BF" transform="translate(104.99609375,80.5390625)"/>
<path d="M0 0 C7.54030288 -0.92330239 7.54030288 -0.92330239 10.9453125 1.23046875 C12.10584883 2.284319 13.24440391 3.36289802 14.359375 4.46484375 C16.62646737 6.58619446 19.17715768 7.76070337 22 9 C22 9.66 22 10.32 22 11 C16.27413092 12.81362369 10.99534371 10.76185851 5.5625 8.6875 C2.56070735 6.71070972 1.9599153 5.40333606 1 2 C0.67 1.34 0.34 0.68 0 0 Z " fill="#E51F03" transform="translate(71,115)"/>
<path d="M0 0 C4.61238221 0.54909312 7.88736725 1.90171799 12 4 C14.31701518 4.76765755 16.63548233 5.38522541 19 6 C19 6.66 19 7.32 19 8 C13.5240621 7.65402571 9.6242099 7.17088679 5 4 C2.80869466 3.30420546 2.80869466 3.30420546 1 3 C0.86043273 6.37346335 0.86043273 6.37346335 2 10 C6.87049469 13.69109239 12.70597834 15.0699041 18.6875 15.5625 C19.68136719 15.64628906 20.67523438 15.73007813 21.69921875 15.81640625 C22.45847656 15.87699219 23.21773437 15.93757813 24 16 C24 16.66 24 17.32 24 18 C14.64740087 18.64010184 7.44034535 17.37466246 -0.125 11.625 C-2.40487455 8.43317563 -2.58485825 6.84335419 -2 3 C-1.34 2.01 -0.68 1.02 0 0 Z " fill="#6C1C02" transform="translate(56,97)"/>
<path d="M0 0 C2.97 0.495 2.97 0.495 6 1 C6.15817694 10.49061662 6.15817694 10.49061662 5 13 C1.46598046 15.82721563 -2.70765673 15.20769403 -7 15 C-7.66 14.67 -8.32 14.34 -9 14 C-8.67 12.68 -8.34 11.36 -8 10 C-6.02 9.67 -4.04 9.34 -2 9 C-1.34 6.03 -0.68 3.06 0 0 Z " fill="#4BA25C" transform="translate(140,124)"/>
<path d="M0 0 C5.44876003 1.72066106 10.71169451 3.84705349 16 6 C16 6.66 16 7.32 16 8 C16.66 8 17.32 8 18 8 C18.33 9.98 18.66 11.96 19 14 C14.1587274 13.52536543 11.06134888 12.63438847 7 10 C6.29875 9.835 5.5975 9.67 4.875 9.5 C2.38869986 8.83698663 1.46383223 8.12255674 0 6 C-0.1875 2.8125 -0.1875 2.8125 0 0 Z " fill="#B50335" transform="translate(53,88)"/>
<path d="M0 0 C2.875 -0.125 2.875 -0.125 6 0 C8 2 8 2 8.23046875 4.34765625 C8.20919922 5.69150391 8.20919922 5.69150391 8.1875 7.0625 C8.17783203 8.41021484 8.17783203 8.41021484 8.16796875 9.78515625 C8 12 8 12 7 13 C5.1875 13.1328125 5.1875 13.1328125 3 13.125 C2.278125 13.12757812 1.55625 13.13015625 0.8125 13.1328125 C-1 13 -1 13 -2 12 C-2.125 8.5 -2.125 8.5 -2 5 C-1.67 4.67 -1.34 4.34 -1 4 C-0.63837971 2.67405895 -0.30271961 1.34061543 0 0 Z " fill="#4DA45E" transform="translate(36,51)"/>
<path d="M0 0 C0.66 0.33 1.32 0.66 2 1 C1.2884375 1.495 1.2884375 1.495 0.5625 2 C-1.85791615 5.09813267 -1.68198917 8.12026792 -2 12 C-1.34 12 -0.68 12 0 12 C0.33 10.68 0.66 9.36 1 8 C2.65 8.33 4.3 8.66 6 9 C5.979375 9.94875 5.95875 10.8975 5.9375 11.875 C5.77448174 14.90666283 5.77448174 14.90666283 7 17 C3.04 17.33 -0.92 17.66 -5 18 C-6.59790826 13.20627521 -6.55396763 9.39810878 -4.6875 4.6875 C-3 2 -3 2 0 0 Z " fill="#FA5DE2" transform="translate(79,85)"/>
<path d="M0 0 C2.50714006 0.94735445 3.29663134 1.95363658 4.796875 4.1484375 C5.22484375 4.75429688 5.6528125 5.36015625 6.09375 5.984375 C7.046875 7.7734375 7.046875 7.7734375 7.046875 10.7734375 C3.37340729 13.22241597 1.38331101 13.08881466 -2.953125 12.7734375 C-4.953125 10.7734375 -4.953125 10.7734375 -5 8.42578125 C-4.90203125 7.52988281 -4.8040625 6.63398437 -4.703125 5.7109375 C-4.61546875 4.81246094 -4.5278125 3.91398437 -4.4375 2.98828125 C-4.27765625 2.25738281 -4.1178125 1.52648438 -3.953125 0.7734375 C-1.953125 -0.2265625 -1.953125 -0.2265625 0 0 Z " fill="#53A75A" transform="translate(163.953125,36.2265625)"/>
<path d="M0 0 C1.05424115 2.68521423 1.12687274 3.7066664 -0.0390625 6.40234375 C-2.98907212 11.11799952 -5.7694448 15.31182367 -10 19 C-10.78375 19.78375 -11.5675 20.5675 -12.375 21.375 C-15 23 -15 23 -18.3125 23.0625 C-24.26389287 21.34769189 -29.75098978 18.48270475 -33 13 C-29.02372114 13.78105478 -26.32153674 15.6120925 -23 17.84375 C-20.90267957 19.05626337 -19.41355512 19.75864449 -17 20 C-10.06601179 16.89795264 -6.25965504 10.55314733 -3 4 C-2.67 3.01 -2.34 2.02 -2 1 C-1.34 0.67 -0.68 0.34 0 0 Z " fill="#C60293" transform="translate(113,102)"/>
<path d="M0 0 C0 3.3 0 6.6 0 10 C-3.99110319 11.9955516 -5.69986566 12.19546065 -10 12 C-10.8125 9.9375 -10.8125 9.9375 -11 7 C-8.51503372 2.10224488 -5.94651841 -1.9821728 0 0 Z " fill="#52A65A" transform="translate(23,37)"/>
<path d="M0 0 C3 0.25 3 0.25 5 2.25 C4.77286834 7.24689646 2.93011419 10.28016787 0 14.25 C-2.475 13.26 -2.475 13.26 -5 12.25 C-4.34 11.92 -3.68 11.59 -3 11.25 C-3.515625 10.5075 -4.03125 9.765 -4.5625 9 C-6 6.25 -6 6.25 -5.8125 4.0625 C-4.39252333 0.89485975 -3.47176889 0.28931407 0 0 Z " fill="#F10407" transform="translate(63,121.75)"/>
<path d="M0 0 C-6.08150141 5.21271549 -10.17864585 6.26513065 -18 6 C-18 5.01 -18 4.02 -18 3 C-19.65 3 -21.3 3 -23 3 C-23 2.34 -23 1.68 -23 1 C-15.00675437 -1.28378447 -8.20207417 -1.36701236 0 0 Z " fill="#394F98" transform="translate(103,104)"/>
<path d="M0 0 C0.33 0.66 0.66 1.32 1 2 C-5.65167307 10.609435 -5.65167307 10.609435 -11 12 C-13.90765293 11.03078236 -16.42100447 9.64296416 -19 8 C-19 7.34 -19 6.68 -19 6 C-17.96359375 5.73445313 -16.9271875 5.46890625 -15.859375 5.1953125 C-14.48952244 4.83877553 -13.11973412 4.4819917 -11.75 4.125 C-10.72712891 3.86396484 -10.72712891 3.86396484 -9.68359375 3.59765625 C-6.25369043 2.69855538 -3.0870476 1.76630043 0 0 Z " fill="#FC56E4" transform="translate(106,111)"/>
<path d="M0 0 C0.99 0 1.98 0 3 0 C3.33 0.99 3.66 1.98 4 3 C5.65948148 4.01187895 7.32580562 5.0126546 9 6 C9 6.66 9 7.32 9 8 C15.02232181 9.46619907 19.90367577 10.32528788 26 9 C25.34 11.31 24.68 13.62 24 16 C23.34 16 22.68 16 22 16 C22 15.34 22 14.68 22 14 C20.56342755 13.66269158 19.12569907 13.33030409 17.6875 13 C16.88699219 12.814375 16.08648437 12.62875 15.26171875 12.4375 C12.89304062 11.90504177 12.89304062 11.90504177 10 12 C7.8125 10 7.8125 10 6 8 C6 8.99 6 9.98 6 11 C5.34 11 4.68 11 4 11 C3.32880451 9.5437455 2.66318193 8.08492133 2 6.625 C1.62875 5.81289062 1.2575 5.00078125 0.875 4.1640625 C0 2 0 2 0 0 Z " fill="#920148" transform="translate(47,80)"/>
<path d="M0 0 C0.66 0.33 1.32 0.66 2 1 C0.54254972 5.61525921 0.54254972 5.61525921 -1.625 7.15234375 C-4.9010187 8.32158069 -7.7783995 8.22615142 -11.25 8.1875 C-11.91588135 8.18105469 -12.5817627 8.17460938 -13.26782227 8.16796875 C-17.91930113 8.09535144 -22.4131446 7.74887435 -27 7 C-26.42655063 9.86724686 -26.1385485 10.8614515 -24 13 C-25.32 13 -26.64 13 -28 13 C-28.33 12.67 -28.66 12.34 -29 12 C-28.71269945 9.66055264 -28.38063221 7.3260857 -28 5 C-23.89619375 4.14106381 -21.0598393 4.13003444 -17 5 C-11.53314589 5.17924112 -6.41088597 4.77298371 -1 4 C-0.67 2.68 -0.34 1.36 0 0 Z " fill="#5C0F0F" transform="translate(113,88)"/>
<path d="M0 0 C0.66 0.33 1.32 0.66 2 1 C2 1.99 2 2.98 2 4 C2.639375 3.814375 3.27875 3.62875 3.9375 3.4375 C4.618125 3.293125 5.29875 3.14875 6 3 C6.33 3.33 6.66 3.66 7 4 C8.34747084 4.23075082 9.70377565 4.41153063 11.0625 4.5625 C12.361875 4.706875 13.66125 4.85125 15 5 C14.34 7.31 13.68 9.62 13 12 C9 10 9 10 7.1875 8.875 C3.06200057 7.22480023 -0.79493745 7.58976594 -4.9375 9 C-5.9584375 9.495 -5.9584375 9.495 -7 10 C-7.66 9.34 -8.32 8.68 -9 8 C-8.34 7.01 -7.68 6.02 -7 5 C-3.92078868 4.74339906 -1.78863007 4.60568496 1 6 C1 5.34 1 4.68 1 4 C0.34 4 -0.32 4 -1 4 C-0.67 2.68 -0.34 1.36 0 0 Z " fill="#22A61A" transform="translate(74,45)"/>
<path d="M0 0 C1.36125 0.1546875 1.36125 0.1546875 2.75 0.3125 C2.75 1.3025 2.75 2.2925 2.75 3.3125 C0.77 3.3125 -1.21 3.3125 -3.25 3.3125 C-3.44335938 4.23933594 -3.63671875 5.16617188 -3.8359375 6.12109375 C-4.09632813 7.31863281 -4.35671875 8.51617187 -4.625 9.75 C-5.00785156 11.54244141 -5.00785156 11.54244141 -5.3984375 13.37109375 C-5.67945313 14.34175781 -5.96046875 15.31242187 -6.25 16.3125 C-6.91 16.6425 -7.57 16.9725 -8.25 17.3125 C-10.7109375 16.3515625 -10.7109375 16.3515625 -13.625 14.9375 C-16.82143579 13.39528435 -19.76370506 12.02297717 -23.25 11.3125 C-23.25 10.3225 -23.25 9.3325 -23.25 8.3125 C-17.92812773 9.52626034 -13.21093728 11.03873708 -8.25 13.3125 C-8.1675 12.095625 -8.085 10.87875 -8 9.625 C-7.31042005 4.30673269 -5.78625635 0.5563708 0 0 Z " fill="#0A4330" transform="translate(138.25,104.6875)"/>
<path d="M0 0 C3.05917167 0.33990796 4.80401508 0.85698398 7.3125 2.6875 C9 5 9 5 9.5 7.9375 C8.88644396 11.69553075 7.67185576 13.32814424 5 16 C0.0492397 17.65025343 -4.28075409 17.8413331 -8.9375 15.5625 C-11 14 -11 14 -12 13 C-11.6875 9.5 -11.6875 9.5 -11 6 C-10.34 5.67 -9.68 5.34 -9 5 C-8.896875 6.093125 -8.79375 7.18625 -8.6875 8.3125 C-8.25727508 11.83930332 -8.25727508 11.83930332 -6.8125 13.9375 C-4.07756873 15.54073557 -2.1096607 15.38077478 1 15 C3.48105194 14.09764165 3.48105194 14.09764165 5 12 C5.33543224 8.24315896 5.19334591 5.58003773 4 2 C1.99983534 0.79117904 1.99983534 0.79117904 0 0 Z " fill="#A1C0CD" transform="translate(75,54)"/>
<path d="M0 0 C3.36241563 0.45438049 6.04009971 1.35561095 9 3 C9 5.64 9 8.28 9 11 C8.01 11.495 8.01 11.495 7 12 C5.0546875 11.22265625 5.0546875 11.22265625 2.875 10.0625 C2.15054688 9.68222656 1.42609375 9.30195312 0.6796875 8.91015625 C0.12539062 8.60980469 -0.42890625 8.30945313 -1 8 C-1.04241723 5.66705225 -1.04092937 3.33297433 -1 1 C-0.67 0.67 -0.34 0.34 0 0 Z " fill="#0E8AA9" transform="translate(121,118)"/>
<path d="M0 0 C0.99 0.33 1.98 0.66 3 1 C4.0257259 5.41062136 4.03684712 7.92630576 2 12 C1.01 12 0.02 12 -1 12 C-1.99 13.485 -1.99 13.485 -3 15 C-3.66 15 -4.32 15 -5 15 C-5.3457886 9.35211947 -4.56064053 5.92430871 -2 1 C-1.34 0.67 -0.68 0.34 0 0 Z " fill="#8FBD4A" transform="translate(137,107)"/>
<path d="M0 0 C5.04530223 0.50453022 8.50578469 1.75289234 13 4 C16.73771834 4.7136724 16.73771834 4.7136724 20 5 C14.20843638 8.47493817 7.53217065 8.11459949 1 8 C0.67 5.36 0.34 2.72 0 0 Z " fill="#E84700" transform="translate(69,121)"/>
<path d="M0 0 C1.051875 0.4640625 1.051875 0.4640625 2.125 0.9375 C5.08936657 2.03302678 7.87698108 2.56422992 11 3 C11 4.32 11 5.64 11 7 C2.95735526 10.46511403 -4.2046484 12.80611449 -13 13 C-12.67 12.34 -12.34 11.68 -12 11 C-9.53792482 10.19497781 -7.13174861 9.50401685 -4.625 8.875 C-3.93921875 8.69324219 -3.2534375 8.51148437 -2.546875 8.32421875 C0.38130529 7.56653786 2.96334729 7 6 7 C6 6.34 6 5.68 6 5 C3.525 4.505 3.525 4.505 1 4 C0.67 2.68 0.34 1.36 0 0 Z " fill="#236B07" transform="translate(90,63)"/>
<path d="M0 0 C-1.02927584 2.96153601 -1.80304046 3.88945236 -4.58203125 5.44921875 C-16.21677189 9.90896819 -26.70650964 10.60135646 -39 9 C-39 8.67 -39 8.34 -39 8 C-37.98421875 7.96261719 -36.9684375 7.92523438 -35.921875 7.88671875 C-23.68495726 7.34202668 -11.01304934 0 0 0 Z " fill="#48A01D" transform="translate(105,68)"/>
<path d="M0 0 C0.66 0.33 1.32 0.66 2 1 C1.67 1.66 1.34 2.32 1 3 C0.65227358 4.93148876 0.34661809 6.87063507 0.0625 8.8125 C-0.11152344 9.96878906 -0.28554688 11.12507813 -0.46484375 12.31640625 C-0.82288535 14.7808824 -1.16916429 17.24709492 -1.50390625 19.71484375 C-1.66761719 20.88144531 -1.83132812 22.04804687 -2 23.25 C-2.2165625 24.86648437 -2.2165625 24.86648437 -2.4375 26.515625 C-2.623125 27.33546875 -2.80875 28.1553125 -3 29 C-3.66 29.33 -4.32 29.66 -5 30 C-6.91064071 26.17871859 -6.50955033 21.73010113 -5.328125 17.71875 C-4.77782433 16.20282741 -4.22316062 14.68848129 -3.6640625 13.17578125 C-2.72426236 10.09655373 -2.872273 7.19317512 -3 4 C-2.67 3.01 -2.34 2.02 -2 1 C-1.34 0.67 -0.68 0.34 0 0 Z " fill="#133846" transform="translate(50,52)"/>
<path d="M0 0 C0.66 0 1.32 0 2 0 C1.98428955 0.60996826 1.9685791 1.21993652 1.95239258 1.84838867 C1.88980187 4.6279971 1.85093378 7.40745692 1.8125 10.1875 C1.78736328 11.14720703 1.76222656 12.10691406 1.73632812 13.09570312 C1.6827332 18.25868128 1.65774938 21.78876421 5 26 C5.68096422 27.32608822 6.35330586 28.65686601 7 30 C6.01 30 5.02 30 4 30 C2.6484375 28.57421875 2.6484375 28.57421875 1.375 26.6875 C0.94960938 26.07261719 0.52421875 25.45773438 0.0859375 24.82421875 C-4.32563021 17.41341975 -1.6543328 7.90239328 0 0 Z " fill="#F43632" transform="translate(51,91)"/>
<path d="M0 0 C0.66 0 1.32 0 2 0 C2.23074219 0.62648437 2.46148437 1.25296875 2.69921875 1.8984375 C4.6234904 7.12227926 4.6234904 7.12227926 8.75 10.5625 C9.4925 10.706875 10.235 10.85125 11 11 C11 11.66 11 12.32 11 13 C9.5882217 13.53394179 8.17029756 14.05165104 6.75 14.5625 C5.96109375 14.85253906 5.1721875 15.14257812 4.359375 15.44140625 C1.80896548 16.04522837 0.44677771 15.8473932 -2 15 C-1.67 14.195625 -1.34 13.39125 -1 12.5625 C0.20717135 8.26195205 0.17721353 4.43033819 0 0 Z " fill="#089C3F" transform="translate(85,57)"/>
<path d="M0 0 C1.0209375 0.86625 1.0209375 0.86625 2.0625 1.75 C2.0625 3.07 2.0625 4.39 2.0625 5.75 C0.0825 4.43 -1.8975 3.11 -3.9375 1.75 C-3.6075 2.41 -3.2775 3.07 -2.9375 3.75 C-3.52917969 3.71519531 -4.12085937 3.68039063 -4.73046875 3.64453125 C-9.65670277 3.47576956 -12.94129636 3.50308454 -16.9375 6.75 C-17.2675 7.41 -17.5975 8.07 -17.9375 8.75 C-18.9275 8.42 -19.9175 8.09 -20.9375 7.75 C-15.81394082 0.37207479 -8.90708789 -3.79025016 0 0 Z " fill="#50878F" transform="translate(81.9375,53.25)"/>
<path d="M0 0 C6.75 0.75 6.75 0.75 9 3 C9.80373967 9.25216726 7.95336073 12.53746112 4.5 17.4375 C4.07074219 18.07365234 3.64148438 18.70980469 3.19921875 19.36523438 C2.14715133 20.91995623 1.07552 22.46140889 0 24 C-0.99 23.67 -1.98 23.34 -3 23 C-2.00806641 21.57107422 -2.00806641 21.57107422 -0.99609375 20.11328125 C-0.14244646 18.84688142 0.71037524 17.5799248 1.5625 16.3125 C2.00013672 15.68666016 2.43777344 15.06082031 2.88867188 14.41601562 C5.49975365 10.58055785 5.49975365 10.58055785 5.77734375 6.04296875 C5.52082031 5.36878906 5.26429687 4.69460937 5 4 C3.02 3.34 1.04 2.68 -1 2 C-0.67 1.34 -0.34 0.68 0 0 Z " fill="#500529" transform="translate(61,119)"/>
<path d="M0 0 C3.59981466 1.44775155 5.15103283 3.20954292 7.25 6.4375 C7.77078125 7.21996094 8.2915625 8.00242188 8.828125 8.80859375 C10 11 10 11 10 14 C5.51622621 13.7362486 3.08643867 11.91100187 0.09375 8.765625 C-1 7 -1 7 -0.875 3.125 C-0.58625 2.09375 -0.2975 1.0625 0 0 Z " fill="#1AA70B" transform="translate(45,131)"/>
<path d="M0 0 C1.65 0.33 3.3 0.66 5 1 C5 1.66 5 2.32 5 3 C6.65 3 8.3 3 10 3 C10 3.66 10 4.32 10 5 C12.31 5 14.62 5 17 5 C16.67 6.32 16.34 7.64 16 9 C15.01 8.649375 14.02 8.29875 13 7.9375 C8.73634087 6.69066308 5.33839312 7.2388784 1 8 C-1 5 -1 5 -0.625 2.3125 C-0.41875 1.549375 -0.2125 0.78625 0 0 Z " fill="#FC3800" transform="translate(57,113)"/>
<path d="M0 0 C0.33 0.66 0.66 1.32 1 2 C-2.50276171 6.00478619 -7.12563258 7.20660067 -12 9 C-13.010625 9.391875 -14.02125 9.78375 -15.0625 10.1875 C-19.00351987 11.27756933 -22.93386928 11.65663785 -27 12 C-26.67 11.01 -26.34 10.02 -26 9 C-23.66231246 8.20669442 -21.45948326 7.60111215 -19.0625 7.0625 C-8.77652076 5.02577123 -8.77652076 5.02577123 0 0 Z " fill="#47A818" transform="translate(105,72)"/>
<path d="M0 0 C0.99 0.33 1.98 0.66 3 1 C2.67 1.33 2.34 1.66 2 2 C1.91226196 5.08963235 2.21104863 8.01138952 3 11 C5.37574221 13.58917968 5.37574221 13.58917968 8 15 C4.67919334 15.23168419 2.31918019 15.12057918 -0.8125 13.9375 C-3 12 -3 12 -4.0625 8.625 C-3.98829559 4.32114415 -2.98803047 2.98803047 0 0 Z " fill="#F2F6F7" transform="translate(93,49)"/>
<path d="M0 0 C0.78375 0.04125 1.5675 0.0825 2.375 0.125 C2.375 4.125 2.375 4.125 1.375 6.125 C2.035 6.455 2.695 6.785 3.375 7.125 C1.725 7.455 0.075 7.785 -1.625 8.125 C-1.625 9.775 -1.625 11.425 -1.625 13.125 C-2.285 13.125 -2.945 13.125 -3.625 13.125 C-5.65392674 9.06714651 -5.79385197 6.5081949 -4.625 2.125 C-2.625 0.125 -2.625 0.125 0 0 Z " fill="#62B959" transform="translate(46.625,122.875)"/>
<path d="M0 0 C3.31540566 0.39469115 5.75173018 0.8614308 8.6875 2.5 C13.35190623 4.61218395 17.93164819 4.73846583 23 5 C23.33 5.99 23.66 6.98 24 8 C23.40461426 7.93417725 22.80922852 7.86835449 22.19580078 7.80053711 C19.50616701 7.50667847 16.81564107 7.22198115 14.125 6.9375 C12.71927734 6.7818457 12.71927734 6.7818457 11.28515625 6.62304688 C10.38925781 6.52958984 9.49335937 6.43613281 8.5703125 6.33984375 C7.74289551 6.25081787 6.91547852 6.16179199 6.06298828 6.07006836 C3.93524624 5.83349474 3.93524624 5.83349474 2 7 C1.34 6.67 0.68 6.34 0 6 C0 4.02 0 2.04 0 0 Z " fill="#E85259" transform="translate(57,100)"/>
<path d="M0 0 C0.99 0 1.98 0 3 0 C2.34 1.65 1.68 3.3 1 5 C0.2265625 4.88140625 -0.546875 4.7628125 -1.34375 4.640625 C-8.64641124 3.73683029 -12.79837971 4.14453485 -19 8 C-19.99 8.33 -20.98 8.66 -22 9 C-20.83830173 5.74724485 -19.03990212 3.61891836 -16.125 1.74609375 C-12.11683809 0.33881631 -7.92341869 0.78173278 -3.73046875 0.95703125 C-2.37888672 0.97830078 -2.37888672 0.97830078 -1 1 C-0.67 0.67 -0.34 0.34 0 0 Z " fill="#0C4B10" transform="translate(72,43)"/>
<path d="M0 0 C2.71920448 1.35960224 3.30569776 3.25857153 4.39453125 6 C6.69223529 13.58983528 4.19669101 22.39246426 3 30 C2.34 30 1.68 30 1 30 C0.91120759 24.72178479 0.83733808 19.59610307 1.6875 14.375 C2.34675153 9.44843111 0.88777326 5.51145814 -1 1 C-0.67 0.67 -0.34 0.34 0 0 Z " fill="#591306" transform="translate(46,81)"/>
<path d="M0 0 C1.921875 0.08984375 1.921875 0.08984375 4 1 C5.703125 3.06640625 5.703125 3.06640625 7.25 5.5625 C7.77078125 6.38878906 8.2915625 7.21507812 8.828125 8.06640625 C9.21484375 8.70449219 9.6015625 9.34257812 10 10 C9.34 11.32 8.68 12.64 8 14 C7.34 14 6.68 14 6 14 C4.5368217 12.02559073 3.19286936 10.06761129 1.875 8 C1.50246094 7.42765625 1.12992188 6.8553125 0.74609375 6.265625 C-0.17550408 4.84778218 -1.08855821 3.42439275 -2 2 C-1.34 1.34 -0.68 0.68 0 0 Z " fill="#5EA701" transform="translate(49,130)"/>
<path d="M0 0 C1.32 0 2.64 0 4 0 C4 0.99 4 1.98 4 3 C4.9075 2.95875 5.815 2.9175 6.75 2.875 C9.94621811 2.99793147 11.28410836 3.50035549 14 5 C8.89665983 6.905247 4.53657294 8.42589023 -1 8 C-1.04241723 5.66705225 -1.04092937 3.33297433 -1 1 C-0.67 0.67 -0.34 0.34 0 0 Z " fill="#3B1354" transform="translate(81,107)"/>
<path d="M0 0 C1.19109375 -0.00386719 1.19109375 -0.00386719 2.40625 -0.0078125 C4.5 0.125 4.5 0.125 6.5 1.125 C4.625 5 4.625 5 3.5 6.125 C-0.16344611 6.26068319 -3.00615721 6.28961426 -6.5 5.125 C-6.5 3.805 -6.5 2.485 -6.5 1.125 C-4.13386544 -0.05806728 -2.63219264 -0.00854608 0 0 Z " fill="#E5CF75" transform="translate(85.5,39.875)"/>
<path d="M0 0 C3 1 3 1 5 4 C5 7.4375 5 7.4375 4 11 C-0.82051282 15 -0.82051282 15 -4 15 C-4 13.68 -4 12.36 -4 11 C-3.34 11 -2.68 11 -2 11 C-2 10.01 -2 9.02 -2 8 C-1.484375 7.54625 -0.96875 7.0925 -0.4375 6.625 C0.036875 6.08875 0.51125 5.5525 1 5 C0.76956136 2.34533951 0.76956136 2.34533951 0 0 Z " fill="#8E0048" transform="translate(113,86)"/>
<path d="M0 0 C1.32 0.33 2.64 0.66 4 1 C2.02 3.97 2.02 3.97 0 7 C0.66 7 1.32 7 2 7 C2 6.34 2 5.68 2 5 C3.32 5.33 4.64 5.66 6 6 C4.84826645 8.46800047 3.95216435 10.04783565 2 12 C-0.4375 11.3125 -0.4375 11.3125 -3 10 C-3.8125 7.375 -3.8125 7.375 -4 5 C-3.01 4.34 -2.02 3.68 -1 3 C-0.67 2.01 -0.34 1.02 0 0 Z " fill="#205F6C" transform="translate(73,58)"/>
<path d="M0 0 C-3 2 -3 2 -6.5625 2.9375 C-10.24149406 3.67850977 -10.24149406 3.67850977 -12 7 C-11.86692505 12.05939668 -11.86692505 12.05939668 -8.9375 15.9375 C-7.9784375 16.4634375 -7.9784375 16.4634375 -7 17 C-9.875 16.6875 -9.875 16.6875 -13 16 C-15.4915904 12.2626144 -15.45793285 10.42668417 -15 6 C-10.84799297 -0.67286845 -7.51846384 -1.44585843 0 0 Z " fill="#5A8B96" transform="translate(102,47)"/>
<path d="M0 0 C2.5713019 1.41584345 3.95179389 2.79817844 6 5 C6 5.99 6 6.98 6 8 C5.34 8 4.68 8 4 8 C3.2575 7.175 2.515 6.35 1.75 5.5 C-0.77151403 2.78277541 -0.77151403 2.78277541 -4 2.375 C-7.92660732 3.19304319 -9.44578533 4.99504157 -12 8 C-13.32 7.34 -14.64 6.68 -16 6 C-16 5.34 -16 4.68 -16 4 C-15.4225 3.896875 -14.845 3.79375 -14.25 3.6875 C-11.91855358 3.14689549 -11.91855358 3.14689549 -10.25 1.4375 C-6.93049525 -0.6832947 -3.76247304 -0.7856505 0 0 Z " fill="#F30AC1" transform="translate(107,81)"/>
<path d="M0 0 C0.33 0.99 0.66 1.98 1 3 C0.32453125 3.10957031 -0.3509375 3.21914062 -1.046875 3.33203125 C-1.93890625 3.49058594 -2.8309375 3.64914063 -3.75 3.8125 C-4.63171875 3.96332031 -5.5134375 4.11414063 -6.421875 4.26953125 C-9.1910911 5.05414248 -10.8259401 6.14595359 -13 8 C-14.98 7.01 -16.96 6.02 -19 5 C-14.26081982 0.26081982 -6.42769748 -0.41919766 0 0 Z " fill="#225D34" transform="translate(106,78)"/>
<path d="M0 0 C3.5 0.1875 3.5 0.1875 5.5 1.1875 C5.17 2.5075 4.84 3.8275 4.5 5.1875 C0.87 5.8475 -2.76 6.5075 -6.5 7.1875 C-5.11732852 0.2741426 -5.11732852 0.2741426 0 0 Z " fill="#FF9CF0" transform="translate(84.5,84.8125)"/>
<path d="M0 0 C0.99 0 1.98 0 3 0 C4.26237731 2.52475462 4.09856404 4.31200466 4.0625 7.125 C4.05347656 8.03507812 4.04445313 8.94515625 4.03515625 9.8828125 C4.02355469 10.58148438 4.01195313 11.28015625 4 12 C3.01 12 2.02 12 1 12 C1.33 10.02 1.66 8.04 2 6 C1.34 6 0.68 6 0 6 C0 6.66 0 7.32 0 8 C-1.32 8.33 -2.64 8.66 -4 9 C-3.67 8.01 -3.34 7.02 -3 6 C-3.38932856 3.85744207 -3.38932856 3.85744207 -4 2 C-2.68 2 -1.36 2 0 2 C0 1.34 0 0.68 0 0 Z " fill="#36636C" transform="translate(103,50)"/>
<path d="M0 0 C2 2 2 2 2.25 4 C2.4975 4.66 2.745 5.32 3 6 C3.969375 6.309375 4.93875 6.61875 5.9375 6.9375 C9 8 9 8 10.375 10.625 C10.58125 11.40875 10.7875 12.1925 11 13 C9.02 13 7.04 13 5 13 C5 12.34 5 11.68 5 11 C3.68 11 2.36 11 1 11 C1 9.35 1 7.7 1 6 C0.34 6 -0.32 6 -1 6 C-0.67 4.02 -0.34 2.04 0 0 Z " fill="#1575A4" transform="translate(53,60)"/>
<path d="M0 0 C5.47075025 1.74915144 10.74348464 3.68713324 16 6 C16.99 6.33 17.98 6.66 19 7 C19 7.99 19 8.98 19 10 C14.1587274 9.52536543 11.06134888 8.63438847 7 6 C5.948125 5.7525 5.948125 5.7525 4.875 5.5 C2.50908384 4.86908902 1.51525743 3.89407179 0 2 C0 1.34 0 0.68 0 0 Z " fill="#D2011E" transform="translate(53,92)"/>
<path d="M0 0 C1.32 0.33 2.64 0.66 4 1 C4 1.66 4 2.32 4 3 C5.05767578 3.18369141 5.05767578 3.18369141 6.13671875 3.37109375 C9.15503183 4.03405201 11.91889442 4.98175575 14.8125 6.0625 C15.78832031 6.42472656 16.76414062 6.78695312 17.76953125 7.16015625 C18.50558594 7.43730469 19.24164063 7.71445313 20 8 C17.5782781 9.54518218 16.41659745 10.05989 13.52734375 9.64453125 C12.67269531 9.36996094 11.81804688 9.09539062 10.9375 8.8125 C10.08027344 8.55082031 9.22304688 8.28914063 8.33984375 8.01953125 C5.91722143 6.96393121 4.75847819 5.92785003 3 4 C2.01 3.34 1.02 2.68 0 2 C0 1.34 0 0.68 0 0 Z " fill="#780260" transform="translate(50,81)"/>
<path d="M0 0 C0.04125 0.61875 0.0825 1.2375 0.125 1.875 C0.41375 2.57625 0.7025 3.2775 1 4 C3.91666667 5.25 3.91666667 5.25 7 6 C7.66 6.33 8.32 6.66 9 7 C9 7.99 9 8.98 9 10 C5.625 10.1875 5.625 10.1875 2 10 C1.34 9.01 0.68 8.02 0 7 C-0.99 7 -1.98 7 -3 7 C-3 3 -3 3 -1.5 1.25 C-1.005 0.8375 -0.51 0.425 0 0 Z " fill="#3C218C" transform="translate(52,70)"/>
<path d="M0 0 C0.99 0.66 1.98 1.32 3 2 C3 2.99 3 3.98 3 5 C-0.96 5 -4.92 5 -9 5 C-8.67 3.68 -8.34 2.36 -8 1 C-5.22899606 -0.38550197 -3.0665294 -0.1877467 0 0 Z " fill="#FEACF2" transform="translate(106,83)"/>
<path d="M0 0 C0.66 0.33 1.32 0.66 2 1 C1.34 1.5775 0.68 2.155 0 2.75 C-3.01105915 7.64297112 -2.32185363 12.39438258 -2 18 C-2.99 18 -3.98 18 -5 18 C-6.59790826 13.20627521 -6.55396763 9.39810878 -4.6875 4.6875 C-3 2 -3 2 0 0 Z " fill="#FE42DC" transform="translate(79,85)"/>
<path d="M0 0 C0.66 0.33 1.32 0.66 2 1 C2 1.99 2 2.98 2 4 C2.9590625 3.7215625 2.9590625 3.7215625 3.9375 3.4375 C4.618125 3.293125 5.29875 3.14875 6 3 C6.33 3.33 6.66 3.66 7 4 C8.34747084 4.23075082 9.70377565 4.41153063 11.0625 4.5625 C12.361875 4.706875 13.66125 4.85125 15 5 C14.34 6.32 13.68 7.64 13 9 C12.01 9 11.02 9 10 9 C10 8.34 10 7.68 10 7 C7.03 6.67 4.06 6.34 1 6 C1 5.34 1 4.68 1 4 C0.34 4 -0.32 4 -1 4 C-0.67 2.68 -0.34 1.36 0 0 Z " fill="#5BA602" transform="translate(74,45)"/>
<path d="M0 0 C0.78375 0.04125 1.5675 0.0825 2.375 0.125 C2.02098897 3.31109925 1.54472964 4.91566678 -0.5 7.4375 C-2.625 9.125 -2.625 9.125 -5.625 9.125 C-4.6356383 0.22074468 -4.6356383 0.22074468 0 0 Z " fill="#5DAC53" transform="translate(157.625,149.875)"/>
<path d="M0 0 C3.63 0 7.26 0 11 0 C11 0.99 11 1.98 11 3 C7.84493858 3.93619813 5.03413498 4.1057123 1.75 4.0625 C0.85796875 4.05347656 -0.0340625 4.04445313 -0.953125 4.03515625 C-1.62859375 4.02355469 -2.3040625 4.01195313 -3 4 C-2.34 3.67 -1.68 3.34 -1 3 C-0.67 2.01 -0.34 1.02 0 0 Z " fill="#E60E06" transform="translate(98,98)"/>
<path d="M0 0 C0.99 0.33 1.98 0.66 3 1 C1.75023244 4.65316671 1.32901247 5.78065836 -2 8 C-5.83103042 7.68074747 -7.76680553 7.15546298 -11 5 C-11 4.01 -11 3.02 -11 2 C-9.88625 2.495 -9.88625 2.495 -8.75 3 C-5.86116688 4.22782871 -5.86116688 4.22782871 -2 4 C-1.34 2.68 -0.68 1.36 0 0 Z " fill="#444E08" transform="translate(137,127)"/>
<path d="M0 0 C4.875 0.875 4.875 0.875 6 2 C6.09886353 3.62252492 6.12971167 5.24947273 6.125 6.875 C6.12757813 7.75929688 6.13015625 8.64359375 6.1328125 9.5546875 C6 12 6 12 5 15 C4.34 15 3.68 15 3 15 C2.95101562 14.08476563 2.90203125 13.16953125 2.8515625 12.2265625 C2.77679688 11.03804687 2.70203125 9.84953125 2.625 8.625 C2.55539063 7.44164063 2.48578125 6.25828125 2.4140625 5.0390625 C2.29782654 1.89437681 2.29782654 1.89437681 0 0 Z " fill="#4BA35C" transform="translate(155,79)"/>
<path d="M0 0 C-0.33 0.99 -0.66 1.98 -1 3 C-4.54377754 4.50524531 -8.46706136 4.09752721 -12.25 4.0625 C-13.51328125 4.05347656 -14.7765625 4.04445312 -16.078125 4.03515625 C-17.04234375 4.02355469 -18.0065625 4.01195312 -19 4 C-18.67 3.34 -18.34 2.68 -18 2 C-15.3350195 1.52189719 -12.74877002 1.15825406 -10.0625 0.875 C-8.9497168 0.74544922 -8.9497168 0.74544922 -7.81445312 0.61328125 C-2.44580853 0 -2.44580853 0 0 0 Z " fill="#724F0C" transform="translate(87,127)"/>
<path d="M0 0 C2.31 0.33 4.62 0.66 7 1 C6.34 3.64 5.68 6.28 5 9 C3 9 3 9 0.8125 7.3125 C-1 5 -1 5 -0.75 2.25 C-0.5025 1.5075 -0.255 0.765 0 0 Z " fill="#484197" transform="translate(115,116)"/>
<path d="M0 0 C0.78375 0.04125 1.5675 0.0825 2.375 0.125 C2.045 0.785 1.715 1.445 1.375 2.125 C0.385 2.455 -0.605 2.785 -1.625 3.125 C-1.02549704 6.80766103 -0.37741109 10.47043185 0.375 14.125 C-2.1 13.135 -2.1 13.135 -4.625 12.125 C-3.965 11.795 -3.305 11.465 -2.625 11.125 C-3.140625 10.3825 -3.65625 9.64 -4.1875 8.875 C-5.625 6.125 -5.625 6.125 -5.4375 3.9375 C-4.11495905 0.98721634 -3.26202433 0.15533449 0 0 Z " fill="#EF3A02" transform="translate(62.625,121.875)"/>
<path d="M0 0 C0.78310547 0.30744141 0.78310547 0.30744141 1.58203125 0.62109375 C7.70748632 2.86316049 13.50382011 3.64787062 20 4 C20 4.66 20 5.32 20 6 C12.94933853 6.34994092 7.38313422 6.19156711 1 3 C0.67 2.01 0.34 1.02 0 0 Z " fill="#570406" transform="translate(60,109)"/>
<path d="M0 0 C2 2 2 2 2 5 C-3.57067277 6.59162079 -8.21101581 7.20674944 -14 7 C-14.33 6.34 -14.66 5.68 -15 5 C-14.08476563 4.89042969 -13.16953125 4.78085938 -12.2265625 4.66796875 C-11.03804688 4.50941406 -9.84953125 4.35085937 -8.625 4.1875 C-7.44164063 4.03667969 -6.25828125 3.88585937 -5.0390625 3.73046875 C-1.70467916 3.29300666 -1.70467916 3.29300666 0 0 Z " fill="#F761DF" transform="translate(110,87)"/>
<path d="M0 0 C0.33 0.99 0.66 1.98 1 3 C-2.06550024 6.02548065 -4.65175827 6.3865743 -8.89257812 6.41015625 C-9.96668945 6.39275391 -9.96668945 6.39275391 -11.0625 6.375 C-12.14241211 6.39240234 -12.14241211 6.39240234 -13.24414062 6.41015625 C-18.5009622 6.38087034 -18.5009622 6.38087034 -20.99609375 4.4765625 C-21.32738281 3.98929687 -21.65867188 3.50203125 -22 3 C-21.67 2.34 -21.34 1.68 -21 1 C-20.360625 1.495 -19.72125 1.99 -19.0625 2.5 C-14.11554616 4.9229978 -9.29135219 4.68253044 -4.0625 3.125 C-1.86303176 2.05114265 -1.86303176 2.05114265 0 0 Z " fill="#185E70" transform="translate(84,68)"/>
<path d="M0 0 C3.05917167 0.33990796 4.80401508 0.85698398 7.3125 2.6875 C9.49645069 5.68032131 9.46356672 7.36872733 9 11 C8.01 12.485 8.01 12.485 7 14 C6.34 14 5.68 14 5 14 C5.01740234 13.07767578 5.01740234 13.07767578 5.03515625 12.13671875 C5.04417969 11.32847656 5.05320312 10.52023438 5.0625 9.6875 C5.07410156 8.88699219 5.08570312 8.08648437 5.09765625 7.26171875 C5.09657855 4.83138666 5.09657855 4.83138666 4 2 C1.99983534 0.79117904 1.99983534 0.79117904 0 0 Z " fill="#DEE9ED" transform="translate(75,54)"/>
<path d="M0 0 C0 0.66 0 1.32 0 2 C-3.63423209 4.32590854 -6.77088331 4.16265833 -11 4 C-10.6875 2.0625 -10.6875 2.0625 -10 0 C-6.30581799 -1.231394 -3.7943739 -0.64432764 0 0 Z " fill="#80C97F" transform="translate(68,47)"/>
<path d="M0 0 C1.98 0.495 1.98 0.495 4 1 C4 3.64 4 6.28 4 9 C3.01 9.495 3.01 9.495 2 10 C1.01 9.34 0.02 8.68 -1 8 C-0.67 5.36 -0.34 2.72 0 0 Z " fill="#049D5D" transform="translate(126,120)"/>
<path d="M0 0 C3.13157326 0.62212058 5.34039664 1.68694076 8 3.4375 C10.60436882 5.14153038 13.19267917 6.65273665 16 8 C16 8.66 16 9.32 16 10 C10.07468476 9.4445017 4.83831838 6.12555562 1 1.6875 C0.67 1.130625 0.34 0.57375 0 0 Z " fill="#CF019B" transform="translate(80,115)"/>
<path d="M0 0 C0 0.99 0 1.98 0 3 C-1.98 3 -3.96 3 -6 3 C-6.66 5.31 -7.32 7.62 -8 10 C-8.99 10 -9.98 10 -11 10 C-9.13369612 2.39122265 -8.22012842 -0.54800856 0 0 Z " fill="#1B4E10" transform="translate(141,105)"/>
<path d="M0 0 C3.96 0 7.92 0 12 0 C8.39042389 3.2910841 5.87362847 4.54663921 1 5 C0.67 3.35 0.34 1.7 0 0 Z " fill="#2376A8" transform="translate(91,104)"/>
<path d="M0 0 C0.66 0.33 1.32 0.66 2 1 C1.55084229 1.4439209 1.10168457 1.8878418 0.63891602 2.34521484 C-1.38915607 4.35253603 -3.41336416 6.36370999 -5.4375 8.375 C-6.14455078 9.07367188 -6.85160156 9.77234375 -7.58007812 10.4921875 C-8.25361328 11.1625 -8.92714844 11.8328125 -9.62109375 12.5234375 C-10.2442749 13.14138184 -10.86745605 13.75932617 -11.50952148 14.39599609 C-13.09048151 15.94660067 -13.09048151 15.94660067 -14 18 C-14.66 17.67 -15.32 17.34 -16 17 C-11.07037669 10.7178043 -6.2879759 4.95010869 0 0 Z " fill="#7FBF4C" transform="translate(34,19)"/>
<path d="M0 0 C1.22589844 0.15275391 1.22589844 0.15275391 2.4765625 0.30859375 C3.41628906 0.43427734 3.41628906 0.43427734 4.375 0.5625 C0.85875245 2.50408017 -1.5965651 2.74561068 -5.625 2.5625 C-5.05155063 5.42974686 -4.7635485 6.4239515 -2.625 8.5625 C-3.945 8.5625 -5.265 8.5625 -6.625 8.5625 C-6.955 8.2325 -7.285 7.9025 -7.625 7.5625 C-7.3125 4.0625 -7.3125 4.0625 -6.625 0.5625 C-4.10446405 -0.69776798 -2.7707902 -0.35624445 0 0 Z " fill="#895428" transform="translate(91.625,92.4375)"/>
<path d="M0 0 C2 2 2 2 2.046875 5.00390625 C1.89992187 6.76541016 1.89992187 6.76541016 1.75 8.5625 C1.61851563 10.32787109 1.61851563 10.32787109 1.484375 12.12890625 C1.32453125 13.07636719 1.1646875 14.02382812 1 15 C0.01 15.495 0.01 15.495 -1 16 C-3.11912545 11.7617491 -2.25196473 6.88187654 -1 2.5 C-0.67 1.675 -0.34 0.85 0 0 Z " fill="#391249" transform="translate(46,66)"/>
<path d="M0 0 C1.98 0.99 3.96 1.98 6 3 C6 4.98 6 6.96 6 9 C4.35 8.67 2.7 8.34 1 8 C0.34 5.69 -0.32 3.38 -1 1 C-0.67 0.67 -0.34 0.34 0 0 Z " fill="#0797B3" transform="translate(55,59)"/>
<path d="M0 0 C1.32 0.66 2.64 1.32 4 2 C3.01 2 2.02 2 1 2 C1.25561323 4.3431213 1.59270772 6.67843403 2 9 C2.66 9.33 3.32 9.66 4 10 C3.67 10.99 3.34 11.98 3 13 C-1.88346282 8.8490566 -1.88346282 8.8490566 -2.4375 4.8125 C-2 2 -2 2 0 0 Z " fill="#854005" transform="translate(56,98)"/>
<path d="M0 0 C2.33294775 -0.04241723 4.66702567 -0.04092937 7 0 C8 1 8 1 8.0625 4.5625 C8.041875 5.696875 8.02125 6.83125 8 8 C6.66102417 7.04956626 5.32894573 6.08940853 4 5.125 C3.2575 4.59132812 2.515 4.05765625 1.75 3.5078125 C1.1725 3.01023438 0.595 2.51265625 0 2 C0 1.34 0 0.68 0 0 Z " fill="#4FA45B" transform="translate(22,150)"/>
<path d="M0 0 C3.76024616 2.50683077 4.39192086 4.86493934 6 9 C3.625 9.125 3.625 9.125 1 9 C-1 7 -1 7 -1.1875 3.9375 C-1 1 -1 1 0 0 Z " fill="#479E5A" transform="translate(37,130)"/>
<path d="M0 0 C1.32 0 2.64 0 4 0 C4 1.65 4 3.3 4 5 C2.22950311 5.05410687 0.45853151 5.09284119 -1.3125 5.125 C-2.79169922 5.15980469 -2.79169922 5.15980469 -4.30078125 5.1953125 C-7 5 -7 5 -10 3 C-6.7 2.67 -3.4 2.34 0 2 C0 1.34 0 0.68 0 0 Z " fill="#C50218" transform="translate(76,108)"/>
<path d="M0 0 C-4.23513217 3.96189783 -8.547001 5.43181728 -14 7 C-14.33 6.34 -14.66 5.68 -15 5 C-13.06891037 3.96709159 -11.129882 2.94901328 -9.1875 1.9375 C-8.10855469 1.36902344 -7.02960938 0.80054687 -5.91796875 0.21484375 C-3 -1 -3 -1 0 0 Z " fill="#0D3342" transform="translate(106,105)"/>
<path d="M0 0 C0.66 0.66 1.32 1.32 2 2 C1.86328125 4.27734375 1.86328125 4.27734375 1.3125 6.9375 C1.14363281 7.81277344 0.97476563 8.68804687 0.80078125 9.58984375 C-0.0525005 12.15801371 -0.94665558 13.28605135 -3 15 C-2.5547115 9.72684667 -1.91626837 4.98229776 0 0 Z " fill="#76A402" transform="translate(137,117)"/>
<path d="M0 0 C0.99 0.33 1.98 0.66 3 1 C2.7834375 1.99 2.7834375 1.99 2.5625 3 C1.87700084 6.65599551 1.43824485 10.30622195 1 14 C-1 12 -1 12 -1.23046875 9.43359375 C-1.21628906 8.44488281 -1.20210937 7.45617187 -1.1875 6.4375 C-1.18105469 5.44621094 -1.17460938 4.45492187 -1.16796875 3.43359375 C-1 1 -1 1 0 0 Z " fill="#F70305" transform="translate(53,94)"/>
<path d="M0 0 C0.33 0.66 0.66 1.32 1 2 C3.58605332 2.4683265 3.58605332 2.4683265 6.5625 2.625 C8.08037109 2.73714844 8.08037109 2.73714844 9.62890625 2.8515625 C10.80259766 2.92503906 10.80259766 2.92503906 12 3 C12.33 2.34 12.66 1.68 13 1 C12.67 2.32 12.34 3.64 12 5 C7.38 5 2.76 5 -2 5 C-1.34 3.35 -0.68 1.7 0 0 Z " fill="#FE99F0" transform="translate(97,85)"/>
<path d="M0 0 C2.31 0.66 4.62 1.32 7 2 C7 2.66 7 3.32 7 4 C4.36 3.67 1.72 3.34 -1 3 C-1 3.66 -1 4.32 -1 5 C-4.63 5 -8.26 5 -12 5 C-11.67 3.68 -11.34 2.36 -11 1 C-11 1.99 -11 2.98 -11 4 C-5.555 3.01 -5.555 3.01 0 2 C0 1.34 0 0.68 0 0 Z " fill="#5CB74C" transform="translate(68,47)"/>
<path d="M0 0 C0.99 0 1.98 0 3 0 C2.34 1.65 1.68 3.3 1 5 C-1.64 4.67 -4.28 4.34 -7 4 C-7 3.67 -7 3.34 -7 3 C-9.31 2.67 -11.62 2.34 -14 2 C-14 1.67 -14 1.34 -14 1 C-13.07316406 1.01160156 -12.14632812 1.02320313 -11.19140625 1.03515625 C-9.39509766 1.04869141 -9.39509766 1.04869141 -7.5625 1.0625 C-5.77005859 1.07990234 -5.77005859 1.07990234 -3.94140625 1.09765625 C-1.11126659 1.33901792 -1.11126659 1.33901792 0 0 Z " fill="#2F5309" transform="translate(72,43)"/>
<path d="M0 0 C0.97004667 3.16734934 1.04793039 5.7703692 0.75 9.0625 C0.68296875 9.91972656 0.6159375 10.77695312 0.546875 11.66015625 C-0.07538181 14.32252646 -0.91525781 15.29073557 -3 17 C-2.88597936 14.72858891 -2.75841495 12.45785448 -2.625 10.1875 C-2.55539063 8.92292969 -2.48578125 7.65835938 -2.4140625 6.35546875 C-2 3 -2 3 0 0 Z " fill="#3CA3B0" transform="translate(52,52)"/>
<path d="M0 0 C3.70958649 3.35629254 5.85215638 7.53909402 8 12 C5 12 5 12 3.61328125 10.64453125 C-0.69371531 4.57852107 -0.69371531 4.57852107 0 0 Z " fill="#F87B2F" transform="translate(50,109)"/>
<path d="M0 0 C1.32 0 2.64 0 4 0 C3.67 1.98 3.34 3.96 3 6 C0.69 6 -1.62 6 -4 6 C-2.25 3 -2.25 3 0 0 Z " fill="#96223E" transform="translate(111,115)"/>
<path d="M0 0 C0.99 0 1.98 0 3 0 C3.6496875 1.36125 3.6496875 1.36125 4.3125 2.75 C5.82343302 5.93605582 5.82343302 5.93605582 7.75 8.125 C9 10 9 10 8.578125 12.1171875 C8.38734375 12.73851563 8.1965625 13.35984375 8 14 C6.84669053 12.42210402 5.70262073 10.8374518 4.5625 9.25 C3.92441406 8.36828125 3.28632812 7.4865625 2.62890625 6.578125 C1.1724919 4.27300875 0.44068179 2.65650428 0 0 Z " fill="#724709" transform="translate(47,111)"/>
<path d="M0 0 C2.97 0.495 2.97 0.495 6 1 C6 2.32 6 3.64 6 5 C4.125 6.0625 4.125 6.0625 2 7 C1.34 6.67 0.68 6.34 0 6 C0 4.02 0 2.04 0 0 Z " fill="#FB8C42" transform="translate(57,100)"/>
<path d="M0 0 C0.66 0.66 1.32 1.32 2 2 C1.40832031 1.96519531 0.81664063 1.93039063 0.20703125 1.89453125 C-4.71920277 1.72576956 -8.00379636 1.75308454 -12 5 C-12.33 5.66 -12.66 6.32 -13 7 C-13.99 6.67 -14.98 6.34 -16 6 C-12.61538462 1.28571429 -12.61538462 1.28571429 -10.25 0.1875 C-6.77987748 -0.10167688 -3.48857091 -0.16880182 0 0 Z " fill="#316D77" transform="translate(77,55)"/>
<path d="M0 0 C0.66 0 1.32 0 2 0 C2 0.99 2 1.98 2 3 C5.3 3 8.6 3 12 3 C11.67 3.66 11.34 4.32 11 5 C7.7 5 4.4 5 1 5 C0.67 5.99 0.34 6.98 0 8 C-0.66 7.67 -1.32 7.34 -2 7 C-2.125 4.625 -2.125 4.625 -2 2 C-1.34 1.34 -0.68 0.68 0 0 Z " fill="#369E54" transform="translate(54,49)"/>
<path d="M0 0 C2.83417891 0.35119173 3.81648089 0.78491224 5.703125 2.99609375 C6.21359375 3.80175781 6.7240625 4.60742188 7.25 5.4375 C7.77078125 6.24058594 8.2915625 7.04367188 8.828125 7.87109375 C10 10 10 10 10 12 C6.0884532 10.52041491 4.7725476 8.46042529 2.75 4.875 C1.96882813 3.50988281 1.96882813 3.50988281 1.171875 2.1171875 C0.78515625 1.41851562 0.3984375 0.71984375 0 0 Z " fill="#A5A800" transform="translate(49,130)"/>
<path d="M0 0 C3.18141867 -0.46557346 5.25343123 -0.50963377 7.95703125 1.3359375 C9.6935608 2.84258024 11.369718 4.37936464 13 6 C11.203125 6.61328125 11.203125 6.61328125 9 7 C5.75 5.1875 5.75 5.1875 3 3 C3 2.34 3 1.68 3 1 C2.01 0.67 1.02 0.34 0 0 Z " fill="#D40B07" transform="translate(74,115)"/>
<path d="M0 0 C-0.33 0.66 -0.66 1.32 -1 2 C-4.01490557 3.00496852 -6.04181692 3.10335303 -9.1875 3.0625 C-10.53908203 3.04896484 -10.53908203 3.04896484 -11.91796875 3.03515625 C-12.60503906 3.02355469 -13.29210937 3.01195313 -14 3 C-14 2.34 -14 1.68 -14 1 C-9.32798795 -0.20568053 -4.78503708 -0.09382426 0 0 Z " fill="#450942" transform="translate(89,102)"/>
<path d="M0 0 C-0.93103324 2.32758311 -1.65382128 3.74357132 -3.6875 5.25 C-6.83545718 6.27095909 -9.71543368 6.12632947 -13 6 C-11.0417761 4.0417761 -9.51051799 3.10584703 -7.0625 1.875 C-6.37285156 1.52179688 -5.68320313 1.16859375 -4.97265625 0.8046875 C-3 0 -3 0 0 0 Z " fill="#6DBA47" transform="translate(105,68)"/>
<path d="M0 0 C1.65 0.33 3.3 0.66 5 1 C5.33 1.99 5.66 2.98 6 4 C1.56923077 6.09230769 1.56923077 6.09230769 -1.3125 5.625 C-1.869375 5.41875 -2.42625 5.2125 -3 5 C-2.01 3.35 -1.02 1.7 0 0 Z " fill="#049F73" transform="translate(86,67)"/>
<path d="M0 0 C0.66 0 1.32 0 2 0 C1.36934243 3.21852831 0.21979305 5.50801069 -1.5625 8.25 C-2.01753906 8.95640625 -2.47257812 9.6628125 -2.94140625 10.390625 C-3.29074219 10.92171875 -3.64007813 11.4528125 -4 12 C-4.99 11.67 -5.98 11.34 -7 11 C-5.88368586 9.16136495 -4.75670373 7.32920277 -3.625 5.5 C-2.99851562 4.4790625 -2.37203125 3.458125 -1.7265625 2.40625 C-1.15679687 1.6121875 -0.58703125 0.818125 0 0 Z " fill="#632F06" transform="translate(65,131)"/>
<path d="M0 0 C1.19882813 0.15275391 1.19882813 0.15275391 2.421875 0.30859375 C3.02515625 0.39238281 3.6284375 0.47617188 4.25 0.5625 C1.83330297 2.79329726 0.49984673 3.53190652 -2.8125 3.9375 C-5.75 3.5625 -5.75 3.5625 -7.625 2.0625 C-7.99625 1.5675 -8.3675 1.0725 -8.75 0.5625 C-5.62819599 -0.40411363 -3.22916205 -0.42738909 0 0 Z " fill="#F34A21" transform="translate(65.75,105.4375)"/>
<path d="M0 0 C2.7018318 1.3509159 3.28373434 3.23591686 4.40234375 5.9453125 C5.39322022 9.35185513 5.18565142 12.47262309 5 16 C4.67 16 4.34 16 4 16 C3.87625 15.05125 3.7525 14.1025 3.625 13.125 C3.28312823 9.91332809 3.28312823 9.91332809 1 8 C0.28072705 5.68234271 -0.3909893 3.34904126 -1 1 C-0.67 0.67 -0.34 0.34 0 0 Z " fill="#5B0D1E" transform="translate(46,81)"/>
<path d="M0 0 C4.02545534 0.28084572 5.74482626 0.78365704 8.875 3.4375 C11 6 11 6 11 8 C7.22272911 6.18690997 3.62730178 4.0926741 0 2 C0 1.34 0 0.68 0 0 Z " fill="#724404" transform="translate(88,38)"/>
<path d="M0 0 C1.2065625 0.0309375 1.2065625 0.0309375 2.4375 0.0625 C2.4375 1.3825 2.4375 2.7025 2.4375 4.0625 C0.1275 4.7225 -2.1825 5.3825 -4.5625 6.0625 C-3.48963568 0.08511307 -3.48963568 0.08511307 0 0 Z " fill="#C5D390" transform="translate(46.5625,122.9375)"/>
<path d="M0 0 C0.66 0 1.32 0 2 0 C2.12375 0.61875 2.2475 1.2375 2.375 1.875 C2.87197356 4.19120832 2.87197356 4.19120832 5 6 C4.34 6.66 3.68 7.32 3 8 C1.68 8 0.36 8 -1 8 C-1.04241723 5.66705225 -1.04092937 3.33297433 -1 1 C-0.67 0.67 -0.34 0.34 0 0 Z " fill="#63034B" transform="translate(81,107)"/>
<path d="M0 0 C-0.66 1.98 -1.32 3.96 -2 6 C-2.66 6 -3.32 6 -4 6 C-4 5.34 -4 4.68 -4 4 C-5.32 3.67 -6.64 3.34 -8 3 C-7.67 2.01 -7.34 1.02 -7 0 C-4.05610218 -1.17755913 -3.10046087 -1.03348696 0 0 Z " fill="#96226D" transform="translate(73,90)"/>
<path d="M0 0 C0.99 0 1.98 0 3 0 C3.50615298 1.26839526 4.00469099 2.53983102 4.5 3.8125 C4.91765625 4.87404297 4.91765625 4.87404297 5.34375 5.95703125 C6 8 6 8 6 11 C5.34 11 4.68 11 4 11 C3.32880451 9.5437455 2.66318193 8.08492133 2 6.625 C1.62875 5.81289062 1.2575 5.00078125 0.875 4.1640625 C0 2 0 2 0 0 Z " fill="#A32F6B" transform="translate(47,80)"/>
<path d="M0 0 C3.63 0 7.26 0 11 0 C10.01 1.485 10.01 1.485 9 3 C7.0546875 3.29296875 7.0546875 3.29296875 4.875 3.1875 C3.59625 3.125625 2.3175 3.06375 1 3 C0.67 2.01 0.34 1.02 0 0 Z " fill="#2D5912" transform="translate(66,84)"/>
<path d="M0 0 C1.93798521 0.30947671 3.87537426 0.62268834 5.8125 0.9375 C6.89144531 1.11152344 7.97039062 1.28554687 9.08203125 1.46484375 C12 2 12 2 15 3 C15 3.66 15 4.32 15 5 C9.33557626 4.63495936 4.99296295 3.9445679 0 1 C0 0.67 0 0.34 0 0 Z " fill="#E52F00" transform="translate(76,122)"/>
<path d="M0 0 C-2 3 -2 3 -4.1640625 3.51171875 C-4.97617188 3.56972656 -5.78828125 3.62773438 -6.625 3.6875 C-7.85089844 3.78611328 -7.85089844 3.78611328 -9.1015625 3.88671875 C-9.72804688 3.92410156 -10.35453125 3.96148437 -11 4 C-10.67 3.01 -10.34 2.02 -10 1 C-3.84210526 -1.28070175 -3.84210526 -1.28070175 0 0 Z " fill="#5A9229" transform="translate(89,80)"/>
<path d="M0 0 C0.70125 0.309375 1.4025 0.61875 2.125 0.9375 C5.08936657 2.03302678 7.87698108 2.56422992 11 3 C9.68 4.32 8.36 5.64 7 7 C6.67 6.34 6.34 5.68 6 5 C3.47266765 4.34444881 3.47266765 4.34444881 1 4 C0.67 2.68 0.34 1.36 0 0 Z " fill="#157124" transform="translate(90,63)"/>
<path d="M0 0 C1.32 0 2.64 0 4 0 C4 0.66 4 1.32 4 2 C0.3586453 4.33046701 -2.7524747 4.30891093 -7 4 C-7.99 3.34 -8.98 2.68 -10 2 C-9.04287109 1.90912109 -9.04287109 1.90912109 -8.06640625 1.81640625 C-6.82697266 1.69072266 -6.82697266 1.69072266 -5.5625 1.5625 C-4.73878906 1.48128906 -3.91507812 1.40007813 -3.06640625 1.31640625 C-1.01337975 1.21069185 -1.01337975 1.21069185 0 0 Z " fill="#274B4F" transform="translate(102,62)"/>
<path d="M0 0 C0.66 0 1.32 0 2 0 C2.2475 1.258125 2.495 2.51625 2.75 3.8125 C3.48837994 6.83557727 3.79382006 7.8059483 6.125 10 C6.74375 10.33 7.3625 10.66 8 11 C5.125 10.6875 5.125 10.6875 2 10 C-0.4294516 6.3558226 -0.16179575 4.28758728 0 0 Z " fill="#3D6E76" transform="translate(87,53)"/>
<path d="M0 0 C1.32 0.33 2.64 0.66 4 1 C4 4.96 4 8.92 4 13 C3.34 13 2.68 13 2 13 C1.93941406 12.22914062 1.87882812 11.45828125 1.81640625 10.6640625 C1.73261719 9.66117188 1.64882812 8.65828125 1.5625 7.625 C1.48128906 6.62726562 1.40007812 5.62953125 1.31640625 4.6015625 C1.15034374 2.02072387 1.15034374 2.02072387 0 0 Z " fill="#4BA35D" transform="translate(66,27)"/>
<path d="M0 0 C0.66 0.33 1.32 0.66 2 1 C2 3.97 2 6.94 2 10 C1.01 10.495 1.01 10.495 0 11 C-0.66 10.67 -1.32 10.34 -2 10 C-1.85950482 8.52031676 -1.71245174 7.04125484 -1.5625 5.5625 C-1.48128906 4.73878906 -1.40007812 3.91507812 -1.31640625 3.06640625 C-1 1 -1 1 0 0 Z " fill="#0A9D12" transform="translate(131,121)"/>
<path d="M0 0 C0.33 0.66 0.66 1.32 1 2 C0 4 0 4 -2.9375 5.1875 C-7.66619576 6.45833699 -12.22354118 5.711183 -17 5 C-17 4.67 -17 4.34 -17 4 C-16.27554688 3.96261719 -15.55109375 3.92523438 -14.8046875 3.88671875 C-9.13808848 3.50139002 -4.85096382 3.015464 0 0 Z " fill="#491125" transform="translate(113,99)"/>
<path d="M0 0 C3.4375 0.8125 3.4375 0.8125 7 2 C7.33 2.99 7.66 3.98 8 5 C5.36 4.67 2.72 4.34 0 4 C-0.33 3.01 -0.66 2.02 -1 1 C-0.67 0.67 -0.34 0.34 0 0 Z " fill="#4C077C" transform="translate(55,79)"/>
<path d="M0 0 C3.875 1.75 3.875 1.75 5 4 C2.04335481 5.4783226 -0.74229737 5.06032783 -4 5 C-2.68 3.35 -1.36 1.7 0 0 Z " fill="#DBA715" transform="translate(92,42)"/>
<path d="M0 0 C0.3403125 0.9590625 0.3403125 0.9590625 0.6875 1.9375 C1.85250896 4.27193661 1.85250896 4.27193661 4.625 4.75 C5.40875 4.8325 6.1925 4.915 7 5 C4 7 4 7 1 8 C-1 5 -1 5 -0.625 2.3125 C-0.41875 1.549375 -0.2125 0.78625 0 0 Z " fill="#E94C05" transform="translate(57,113)"/>
<path d="M0 0 C1.24546405 2.49092811 0.7767578 3.41080733 0 6 C0.66 6 1.32 6 2 6 C2.33 7.32 2.66 8.64 3 10 C4.65 10.33 6.3 10.66 8 11 C8 11.33 8 11.66 8 12 C4.81126451 12.35430394 3.38410809 12.25953249 0.6875 10.4375 C-1.57929325 7.16324309 -1.36759816 4.89654046 -1 1 C-0.67 0.67 -0.34 0.34 0 0 Z " fill="#184550" transform="translate(67,58)"/>
<path d="M0 0 C1.2065625 0.0309375 1.2065625 0.0309375 2.4375 0.0625 C2.4375 0.7225 2.4375 1.3825 2.4375 2.0625 C1.1175 2.0625 -0.2025 2.0625 -1.5625 2.0625 C-0.5725 3.3825 0.4175 4.7025 1.4375 6.0625 C-0.2125 6.3925 -1.8625 6.7225 -3.5625 7.0625 C-3.60504356 5.06295254 -3.60330783 3.06208364 -3.5625 1.0625 C-2.5625 0.0625 -2.5625 0.0625 0 0 Z " fill="#082A32" transform="translate(100.5625,49.9375)"/>
<path d="M0 0 C0.99 0.33 1.98 0.66 3 1 C3.33 4.63 3.66 8.26 4 12 C3.01 11.67 2.02 11.34 1 11 C0.67 7.37 0.34 3.74 0 0 Z " fill="#4D9F5D" transform="translate(44,51)"/>
<path d="M0 0 C0.66 0.33 1.32 0.66 2 1 C2 2.32 2 3.64 2 5 C2.66 5 3.32 5 4 5 C4.33 6.65 4.66 8.3 5 10 C4.21625 9.360625 3.4325 8.72125 2.625 8.0625 C0.20460719 6.01857687 0.20460719 6.01857687 -2 5 C-1.34 3.35 -0.68 1.7 0 0 Z " fill="#DAB327" transform="translate(50,124)"/>
<path d="M0 0 C2.88575819 0.39803561 3.82189513 0.79009069 5.75 3.0625 C6.1625 3.701875 6.575 4.34125 7 5 C4.36 5 1.72 5 -1 5 C-0.67 3.35 -0.34 1.7 0 0 Z " fill="#E17A00" transform="translate(71,124)"/>
<path d="M0 0 C2.475 0.99 2.475 0.99 5 2 C5 3.32 5 4.64 5 6 C3.02 5.34 1.04 4.68 -1 4 C-0.67 2.68 -0.34 1.36 0 0 Z " fill="#370C51" transform="translate(113,121)"/>
<path d="M0 0 C0.99 0.33 1.98 0.66 3 1 C3 1.99 3 2.98 3 4 C1.02 4.66 -0.96 5.32 -3 6 C-2.625 3.5625 -2.625 3.5625 -2 1 C-1.34 0.67 -0.68 0.34 0 0 Z " fill="#A5D385" transform="translate(137,107)"/>
<path d="M0 0 C0.36923077 6.52307692 0.36923077 6.52307692 -1.5 8.9375 C-1.995 9.288125 -2.49 9.63875 -3 10 C-3.66 9.67 -4.32 9.34 -5 9 C-4.01 7.68 -3.02 6.36 -2 5 C-2.66 4.67 -3.32 4.34 -4 4 C-3.67 3.01 -3.34 2.02 -3 1 C-1 0 -1 0 0 0 Z " fill="#1B4650" transform="translate(81,59)"/>
<path d="M0 0 C2.475 0.495 2.475 0.495 5 1 C5.66 3.31 6.32 5.62 7 8 C5.8274869 7.04882866 4.66212985 6.08882991 3.5 5.125 C2.8503125 4.59132812 2.200625 4.05765625 1.53125 3.5078125 C1.0259375 3.01023438 0.520625 2.51265625 0 2 C0 1.34 0 0.68 0 0 Z " fill="#05A13C" transform="translate(44,136)"/>
<path d="M0 0 C1.32 0.33 2.64 0.66 4 1 C2.1875 4 2.1875 4 0 7 C-0.99 7 -1.98 7 -3 7 C-3 6.01 -3 5.02 -3 4 C-2.34 3.67 -1.68 3.34 -1 3 C-0.67 2.01 -0.34 1.02 0 0 Z " fill="#3F747E" transform="translate(73,58)"/>
<path d="M0 0 C1.31223496 3.93670488 0.24296256 6.12488144 -1 10 C-1.99 9.67 -2.98 9.34 -4 9 C-3.34 6.69 -2.68 4.38 -2 2 C-1.34 2 -0.68 2 0 2 C0 1.34 0 0.68 0 0 Z " fill="#604F01" transform="translate(141,117)"/>
<path d="M0 0 C0.33 0.66 0.66 1.32 1 2 C2.98 2 4.96 2 7 2 C6.67 2.99 6.34 3.98 6 5 C0.25 4.25 0.25 4.25 -2 2 C-1.34 1.34 -0.68 0.68 0 0 Z " fill="#540511" transform="translate(106,119)"/>
<path d="M0 0 C4.03174806 0.27489191 5.56894631 0.53491576 8.375 3.5625 C8.91125 4.366875 9.4475 5.17125 10 6 C6.51102321 5.35389319 3.93230451 3.98128683 1 2 C0.67 1.34 0.34 0.68 0 0 Z " fill="#DC1400" transform="translate(71,115)"/>
<path d="M0 0 C2.31 0.33 4.62 0.66 7 1 C7 1.66 7 2.32 7 3 C4.03 3 1.06 3 -2 3 C-1.34 2.01 -0.68 1.02 0 0 Z " fill="#FC1414" transform="translate(67,107)"/>
<path d="M0 0 C4.31392226 0.4793247 6.16569547 1.7457985 9 5 C8.34 5.66 7.68 6.32 7 7 C6.67 6.34 6.34 5.68 6 5 C5.175 4.505 4.35 4.01 3.5 3.5 C1 2 1 2 0 0 Z " fill="#590326" transform="translate(109,82)"/>
<path d="M0 0 C0.33 0 0.66 0 1 0 C1 2.97 1 5.94 1 9 C0.01 8.67 -0.98 8.34 -2 8 C-1.125 1.125 -1.125 1.125 0 0 Z " fill="#D1DEE3" transform="translate(65,59)"/>
<path d="M0 0 C0.78375 0.04125 1.5675 0.0825 2.375 0.125 C1.75625 0.393125 1.1375 0.66125 0.5 0.9375 C-1.9245233 2.08056848 -1.9245233 2.08056848 -3.625 5.125 C-2.635 5.455 -1.645 5.785 -0.625 6.125 C-2.275 6.785 -3.925 7.445 -5.625 8.125 C-4.59375 0.21875 -4.59375 0.21875 0 0 Z " fill="#091B20" transform="translate(72.625,55.875)"/>
<path d="M0 0 C3.3 0.33 6.6 0.66 10 1 C10 1.66 10 2.32 10 3 C10.99 3 11.98 3 13 3 C13 3.99 13 4.98 13 6 C12.15695313 5.55527344 12.15695313 5.55527344 11.296875 5.1015625 C8.98032695 3.99056497 6.69290908 3.16535294 4.25 2.375 C3.05117187 1.98441406 3.05117187 1.98441406 1.828125 1.5859375 C1.22484375 1.39257812 0.6215625 1.19921875 0 1 C0 0.67 0 0.34 0 0 Z " fill="#2EA507" transform="translate(74,51)"/>
<path d="M0 0 C-1.625 1.5625 -1.625 1.5625 -4 3 C-7.25 2.6875 -7.25 2.6875 -10 2 C-10 1.34 -10 0.68 -10 0 C-3.375 -1.125 -3.375 -1.125 0 0 Z " fill="#1A540F" transform="translate(60,144)"/>
<path d="M0 0 C1.258125 0.12375 2.51625 0.2475 3.8125 0.375 C4.87404297 0.47941406 4.87404297 0.47941406 5.95703125 0.5859375 C8 1 8 1 11 3 C10.67 3.99 10.34 4.98 10 6 C9.46375 5.54625 8.9275 5.0925 8.375 4.625 C5.68301698 2.78311688 3.11479612 1.92028067 0 1 C0 0.67 0 0.34 0 0 Z " fill="#694907" transform="translate(43,121)"/>
<path d="M0 0 C2.64 0.66 5.28 1.32 8 2 C8 2.66 8 3.32 8 4 C5.03 3.67 2.06 3.34 -1 3 C-0.67 2.01 -0.34 1.02 0 0 Z " fill="#6A070B" transform="translate(67,101)"/>
<path d="M0 0 C1.98 0 3.96 0 6 0 C6.33 0.99 6.66 1.98 7 3 C4.36 3 1.72 3 -1 3 C-0.67 2.01 -0.34 1.02 0 0 Z " fill="#FFBCF5" transform="translate(100,83)"/>
<path d="M0 0 C1.27875 0.103125 2.5575 0.20625 3.875 0.3125 C4.95394531 0.39951172 4.95394531 0.39951172 6.0546875 0.48828125 C8 1 8 1 10 4 C8.02 4 6.04 4 4 4 C4 3.34 4 2.68 4 2 C2.68 2 1.36 2 0 2 C0 1.34 0 0.68 0 0 Z " fill="#1E61A5" transform="translate(54,69)"/>
<path d="M0 0 C4.38889325 0.66498383 7.9811485 2.18757677 12 4 C12 4.33 12 4.66 12 5 C9.69 5 7.38 5 5 5 C4.67 4.01 4.34 3.02 4 2 C1.99983534 0.79117904 1.99983534 0.79117904 0 0 Z " fill="#F16000" transform="translate(71,123)"/>
<path d="M0 0 C2.3129482 2.3129482 2.49580975 3.47904875 3.125 6.625 C3.29257812 7.44226563 3.46015625 8.25953125 3.6328125 9.1015625 C3.81457031 10.04128906 3.81457031 10.04128906 4 11 C1 9 1 9 0.48828125 6.8359375 C0.43027344 6.02382812 0.37226562 5.21171875 0.3125 4.375 C0.24675781 3.55773437 0.18101563 2.74046875 0.11328125 1.8984375 C0.07589844 1.27195312 0.03851563 0.64546875 0 0 Z " fill="#FD3302" transform="translate(52,106)"/>
<path d="M0 0 C2 2 2 2 2 6 C1.34 6 0.68 6 0 6 C0 5.01 0 4.02 0 3 C-1.65 3 -3.3 3 -5 3 C-5 2.34 -5 1.68 -5 1 C-2.625 0.375 -2.625 0.375 0 0 Z " fill="#693691" transform="translate(85,104)"/>
<path d="M0 0 C1 3 1 3 -0.3125 5.6875 C-0.869375 6.450625 -1.42625 7.21375 -2 8 C-2.66 8 -3.32 8 -4 8 C-4 6.68 -4 5.36 -4 4 C-3.34 4 -2.68 4 -2 4 C-2 3.01 -2 2.02 -2 1 C-1.34 0.67 -0.68 0.34 0 0 Z " fill="#BD012A" transform="translate(113,93)"/>
<path d="M0 0 C6.75 -0.125 6.75 -0.125 9 1 C9 1.66 9 2.32 9 3 C6.03 2.67 3.06 2.34 0 2 C0 1.34 0 0.68 0 0 Z " fill="#F89B2F" transform="translate(87,95)"/>
<path d="M0 0 C2.31 0 4.62 0 7 0 C4.60490662 2.89932357 2.68754757 3.50168276 -1 4 C-0.67 2.68 -0.34 1.36 0 0 Z " fill="#FFB5F4" transform="translate(80,86)"/>
<path d="M0 0 C3.93774177 -0.36630156 5.56539771 -0.30233203 8.875 2 C9.926875 2.99 9.926875 2.99 11 4 C6.35108046 4.32434322 3.77593392 3.776422 0 1 C0 0.67 0 0.34 0 0 Z " fill="#BACFD7" transform="translate(90,60)"/>
<path d="M0 0 C1.98 0.99 3.96 1.98 6 3 C6 3.99 6 4.98 6 6 C4.125 5.8125 4.125 5.8125 2 5 C0.75 2.4375 0.75 2.4375 0 0 Z " fill="#0F9E0E" transform="translate(49,139)"/>
<path d="M0 0 C4.75 1.875 4.75 1.875 7 3 C7 3.66 7 4.32 7 5 C2.25 4.125 2.25 4.125 0 3 C0 2.01 0 1.02 0 0 Z " fill="#0C4914" transform="translate(126,129)"/>
<path d="M0 0 C2.64 0.66 5.28 1.32 8 2 C7.67 2.66 7.34 3.32 7 4 C4.69 3.67 2.38 3.34 0 3 C0 2.01 0 1.02 0 0 Z " fill="#2B1449" transform="translate(115,113)"/>
<path d="M0 0 C0.66 0.33 1.32 0.66 2 1 C2 2.32 2 3.64 2 5 C2.66 5.66 3.32 6.32 4 7 C2.68 7 1.36 7 0 7 C-1 6 -1 6 -1.125 3.5 C-1 1 -1 1 0 0 Z " fill="#695105" transform="translate(85,94)"/>
<path d="M0 0 C0 1.98 0 3.96 0 6 C-1.32 6.33 -2.64 6.66 -4 7 C-4 3 -4 3 -2.5625 1.25 C-1 0 -1 0 0 0 Z " fill="#3A207D" transform="translate(53,70)"/>
<path d="M0 0 C-2 2 -2 2 -4.3828125 2.1953125 C-5.28773437 2.17210938 -6.19265625 2.14890625 -7.125 2.125 C-8.49011719 2.09792969 -8.49011719 2.09792969 -9.8828125 2.0703125 C-10.58148438 2.04710938 -11.28015625 2.02390625 -12 2 C-7.56043724 -0.29632557 -4.94312365 -1.20238143 0 0 Z " fill="#56AF2A" transform="translate(96,74)"/>
<path d="M0 0 C2.97 0 5.94 0 9 0 C8.34 1.65 7.68 3.3 7 5 C6.67 4.34 6.34 3.68 6 3 C4.02111039 2.27306096 2.02045442 1.60183749 0 1 C0 0.67 0 0.34 0 0 Z " fill="#2B4091" transform="translate(55,74)"/>
<path d="M0 0 C0.66 0 1.32 0 2 0 C1.67 1.65 1.34 3.3 1 5 C-0.65 5 -2.3 5 -4 5 C-4 4.34 -4 3.68 -4 3 C-2.68 2.67 -1.36 2.34 0 2 C0 1.34 0 0.68 0 0 Z " fill="#0A5565" transform="translate(103,56)"/>
<path d="M0 0 C0.66 0.33 1.32 0.66 2 1 C2 1.99 2 2.98 2 4 C3.32 4.33 4.64 4.66 6 5 C6 5.33 6 5.66 6 6 C4.35 6 2.7 6 1 6 C1 5.34 1 4.68 1 4 C0.34 4 -0.32 4 -1 4 C-0.67 2.68 -0.34 1.36 0 0 Z " fill="#4DA804" transform="translate(74,45)"/>
<path d="M0 0 C0.33 0.99 0.66 1.98 1 3 C-1.475 4.485 -1.475 4.485 -4 6 C-4.66 5.34 -5.32 4.68 -6 4 C-4.02 2.68 -2.04 1.36 0 0 Z " fill="#595108" transform="translate(79,38)"/>
<path d="M0 0 C0.33 0.66 0.66 1.32 1 2 C1.99 1.67 2.98 1.34 4 1 C3.49396008 3.16874252 3.00016187 4.99967627 2 7 C1.34 7 0.68 7 0 7 C0 4.69 0 2.38 0 0 Z " fill="#4AB73B" transform="translate(132,115)"/>
<path d="M0 0 C2.64 0 5.28 0 8 0 C4.93882432 2.62386487 4.26826873 3 0 3 C0 2.01 0 1.02 0 0 Z " fill="#169BA7" transform="translate(95,104)"/>
<path d="M0 0 C1.32 0.33 2.64 0.66 4 1 C4 1.66 4 2.32 4 3 C4.99 3.33 5.98 3.66 7 4 C7.33 4.99 7.66 5.98 8 7 C6 7 6 7 4.5625 5.625 C4.046875 5.08875 3.53125 4.5525 3 4 C2.01 3.34 1.02 2.68 0 2 C0 1.34 0 0.68 0 0 Z " fill="#710058" transform="translate(50,81)"/>
<path d="M0 0 C2.46800047 1.15173355 4.04783565 2.04783565 6 4 C6 4.99 6 5.98 6 7 C5.34 7 4.68 7 4 7 C0 2.52941176 0 2.52941176 0 0 Z " fill="#C60095" transform="translate(107,82)"/>
<path d="M0 0 C0.66 1.32 1.32 2.64 2 4 C0.68 4.33 -0.64 4.66 -2 5 C-2.33 3.68 -2.66 2.36 -3 1 C-2.01 0.67 -1.02 0.34 0 0 Z " fill="#4D0372" transform="translate(52,76)"/>
<path d="M0 0 C0.33 0 0.66 0 1 0 C1 1.65 1 3.3 1 5 C2.65 5 4.3 5 6 5 C5.34 5.66 4.68 6.32 4 7 C1.4375 6.75 1.4375 6.75 -1 6 C-1.33 5.34 -1.66 4.68 -2 4 C-1.34 4 -0.68 4 0 4 C0 2.68 0 1.36 0 0 Z " fill="#1B444F" transform="translate(98,56)"/>
<path d="M0 0 C1.2065625 0.0309375 1.2065625 0.0309375 2.4375 0.0625 C2.1075 0.7225 1.7775 1.3825 1.4375 2.0625 C0.4475 2.3925 -0.5425 2.7225 -1.5625 3.0625 C-1.8925 3.7225 -2.2225 4.3825 -2.5625 5.0625 C-3.2225 5.0625 -3.8825 5.0625 -4.5625 5.0625 C-3.43829114 0.08386076 -3.43829114 0.08386076 0 0 Z " fill="#F33538" transform="translate(62.5625,121.9375)"/>
<path d="M0 0 C0.66 0 1.32 0 2 0 C2 0.99 2 1.98 2 3 C3.98 3 5.96 3 8 3 C5.64561267 4.42944945 4.51967567 5.08661261 1.75 4.625 C1.1725 4.41875 0.595 4.2125 0 4 C0 2.68 0 1.36 0 0 Z " fill="#40137A" transform="translate(83,107)"/>
<path d="M0 0 C0.99 0.33 1.98 0.66 3 1 C1.1875 3 1.1875 3 -1 5 C-1.99 5 -2.98 5 -4 5 C-4 4.34 -4 3.68 -4 3 C-2.68 2.67 -1.36 2.34 0 2 C0 1.34 0 0.68 0 0 Z " fill="#256C07" transform="translate(105,74)"/>
<path d="M0 0 C0.33 0.99 0.66 1.98 1 3 C3.97 3.33 6.94 3.66 10 4 C10 4.33 10 4.66 10 5 C6.37 5 2.74 5 -1 5 C-0.67 3.35 -0.34 1.7 0 0 Z " fill="#B1B83C" transform="translate(78,42)"/>
</svg>
